<?xml version="1.0" encoding="UTF-8"?>
<svg xmlns="http://www.w3.org/2000/svg" xmlns:xlink="http://www.w3.org/1999/xlink" width="854" height="480" viewBox="0 0 854 480">
<defs>
<g>
<g id="glyph-0-0">
<path d="M 14.417969 -5.382812 C 14.417969 -4.515625 14.257812 -3.722656 13.933594 -3.007812 C 13.613281 -2.292969 13.140625 -1.683594 12.519531 -1.179688 C 11.890625 -0.679688 11.152344 -0.296875 10.304688 -0.03125 C 9.457031 0.238281 8.425781 0.371094 7.210938 0.371094 C 5.824219 0.371094 4.636719 0.253906 3.644531 0.0234375 C 2.65625 -0.207031 1.851562 -0.464844 1.230469 -0.75 L 1.230469 -4.605469 L 1.660156 -4.605469 C 2.3125 -4.191406 3.078125 -3.835938 3.957031 -3.53125 C 4.835938 -3.230469 5.636719 -3.078125 6.363281 -3.078125 C 6.792969 -3.078125 7.257812 -3.117188 7.765625 -3.191406 C 8.269531 -3.269531 8.691406 -3.433594 9.035156 -3.6875 C 9.304688 -3.886719 9.523438 -4.132812 9.6875 -4.421875 C 9.847656 -4.710938 9.929688 -5.125 9.929688 -5.65625 C 9.929688 -6.183594 9.816406 -6.585938 9.585938 -6.867188 C 9.351562 -7.152344 9.046875 -7.355469 8.664062 -7.484375 C 8.285156 -7.617188 7.824219 -7.695312 7.292969 -7.710938 C 6.757812 -7.726562 6.289062 -7.734375 5.882812 -7.734375 L 5.121094 -7.734375 L 5.121094 -10.863281 L 5.824219 -10.863281 C 6.367188 -10.863281 6.863281 -10.886719 7.316406 -10.933594 C 7.769531 -10.980469 8.15625 -11.078125 8.472656 -11.21875 C 8.792969 -11.371094 9.042969 -11.582031 9.21875 -11.851562 C 9.398438 -12.121094 9.488281 -12.488281 9.488281 -12.949219 C 9.488281 -13.308594 9.40625 -13.601562 9.238281 -13.828125 C 9.070312 -14.054688 8.863281 -14.230469 8.617188 -14.359375 C 8.332031 -14.5 7.996094 -14.597656 7.613281 -14.644531 C 7.234375 -14.691406 6.90625 -14.714844 6.636719 -14.714844 C 6.199219 -14.714844 5.753906 -14.664062 5.300781 -14.5625 C 4.847656 -14.457031 4.402344 -14.328125 3.972656 -14.167969 C 3.640625 -14.039062 3.289062 -13.875 2.925781 -13.671875 C 2.558594 -13.46875 2.289062 -13.316406 2.113281 -13.210938 L 1.742188 -13.210938 L 1.742188 -17.019531 C 2.355469 -17.28125 3.179688 -17.535156 4.21875 -17.777344 C 5.257812 -18.019531 6.316406 -18.140625 7.398438 -18.140625 C 8.457031 -18.140625 9.375 -18.050781 10.152344 -17.867188 C 10.925781 -17.683594 11.589844 -17.417969 12.136719 -17.066406 C 12.742188 -16.695312 13.195312 -16.21875 13.5 -15.640625 C 13.800781 -15.066406 13.953125 -14.414062 13.953125 -13.691406 C 13.953125 -12.679688 13.660156 -11.792969 13.074219 -11.035156 C 12.492188 -10.273438 11.722656 -9.78125 10.765625 -9.558594 L 10.765625 -9.394531 C 11.1875 -9.328125 11.597656 -9.222656 12 -9.070312 C 12.402344 -8.917969 12.792969 -8.671875 13.175781 -8.332031 C 13.535156 -8.019531 13.832031 -7.621094 14.066406 -7.132812 C 14.300781 -6.640625 14.417969 -6.058594 14.417969 -5.382812 Z "/>
</g>
<g id="glyph-0-1">
<path d="M 14.464844 -14.238281 L 6.898438 0 L 1.933594 0 L 9.871094 -14.417969 L 1.394531 -14.417969 L 1.394531 -17.773438 L 14.464844 -17.773438 Z "/>
</g>
<g id="glyph-0-2">
<path d="M 15.0625 -4.140625 L 12.664062 -4.140625 L 12.664062 0.046875 L 8.355469 0.046875 L 8.355469 -4.140625 L 0.535156 -4.140625 L 0.535156 -7.460938 L 8.210938 -17.773438 L 12.664062 -17.773438 L 12.664062 -7.339844 L 15.0625 -7.339844 L 15.0625 -4.140625 M 8.355469 -7.339844 L 8.355469 -13.390625 L 3.855469 -7.339844 Z "/>
</g>
<g id="glyph-0-3">
</g>
<g id="glyph-0-4">
<path d="M 14.8125 -4.953125 C 14.8125 -4.1875 14.65625 -3.480469 14.339844 -2.824219 C 14.027344 -2.167969 13.566406 -1.597656 12.960938 -1.121094 C 12.355469 -0.644531 11.621094 -0.269531 10.746094 0 C 9.875 0.269531 8.878906 0.40625 7.757812 0.40625 C 6.566406 0.40625 5.519531 0.269531 4.617188 -0.0078125 C 3.71875 -0.28125 2.984375 -0.652344 2.410156 -1.121094 C 1.847656 -1.589844 1.429688 -2.144531 1.15625 -2.78125 C 0.886719 -3.417969 0.75 -4.089844 0.75 -4.796875 C 0.75 -5.816406 1.03125 -6.664062 1.59375 -7.339844 C 2.15625 -8.015625 2.96875 -8.582031 4.035156 -9.035156 L 4.035156 -9.105469 C 2.992188 -9.617188 2.265625 -10.234375 1.851562 -10.957031 C 1.4375 -11.679688 1.230469 -12.488281 1.230469 -13.378906 C 1.230469 -14.03125 1.371094 -14.644531 1.660156 -15.21875 C 1.945312 -15.789062 2.375 -16.304688 2.949219 -16.757812 C 3.488281 -17.1875 4.175781 -17.53125 5.007812 -17.789062 C 5.839844 -18.046875 6.769531 -18.179688 7.804688 -18.179688 C 8.902344 -18.179688 9.859375 -18.058594 10.675781 -17.824219 C 11.492188 -17.589844 12.164062 -17.28125 12.6875 -16.902344 C 13.230469 -16.511719 13.640625 -16.039062 13.929688 -15.488281 C 14.214844 -14.933594 14.359375 -14.335938 14.359375 -13.691406 C 14.359375 -12.847656 14.113281 -12.085938 13.625 -11.40625 C 13.136719 -10.722656 12.386719 -10.152344 11.375 -9.691406 L 11.375 -9.621094 C 12.550781 -9.144531 13.417969 -8.515625 13.976562 -7.738281 C 14.535156 -6.964844 14.8125 -6.035156 14.8125 -4.953125 M 10.039062 -13.164062 C 10.039062 -13.769531 9.839844 -14.253906 9.441406 -14.613281 C 9.042969 -14.976562 8.503906 -15.15625 7.816406 -15.15625 C 7.164062 -15.15625 6.636719 -14.996094 6.234375 -14.667969 C 5.835938 -14.34375 5.632812 -13.941406 5.632812 -13.464844 C 5.632812 -12.984375 5.753906 -12.601562 5.996094 -12.3125 C 6.242188 -12.019531 6.617188 -11.753906 7.125 -11.507812 C 7.347656 -11.394531 7.613281 -11.277344 7.917969 -11.160156 C 8.226562 -11.039062 8.632812 -10.886719 9.144531 -10.695312 C 9.453125 -11.101562 9.679688 -11.492188 9.824219 -11.871094 C 9.964844 -12.246094 10.039062 -12.679688 10.039062 -13.164062 M 10.40625 -4.761719 C 10.40625 -5.34375 10.285156 -5.789062 10.039062 -6.097656 C 9.792969 -6.410156 9.261719 -6.757812 8.449219 -7.148438 C 8.21875 -7.261719 7.886719 -7.398438 7.453125 -7.566406 C 7.019531 -7.734375 6.636719 -7.890625 6.300781 -8.03125 C 5.992188 -7.722656 5.714844 -7.339844 5.472656 -6.878906 C 5.230469 -6.421875 5.109375 -5.921875 5.109375 -5.371094 C 5.109375 -4.542969 5.371094 -3.882812 5.894531 -3.390625 C 6.421875 -2.894531 7.113281 -2.648438 7.972656 -2.648438 C 8.203125 -2.648438 8.46875 -2.6875 8.765625 -2.761719 C 9.066406 -2.839844 9.328125 -2.957031 9.558594 -3.113281 C 9.816406 -3.296875 10.019531 -3.511719 10.175781 -3.757812 C 10.332031 -4.007812 10.40625 -4.339844 10.40625 -4.761719 Z "/>
</g>
<g id="glyph-0-5">
<path d="M 14.859375 0 L 1.800781 0 L 1.800781 -2.898438 C 2.910156 -3.777344 3.902344 -4.601562 4.78125 -5.382812 C 5.660156 -6.164062 6.433594 -6.902344 7.101562 -7.601562 C 7.96875 -8.519531 8.597656 -9.320312 8.988281 -10.015625 C 9.378906 -10.707031 9.574219 -11.417969 9.574219 -12.152344 C 9.574219 -12.976562 9.324219 -13.613281 8.832031 -14.054688 C 8.339844 -14.496094 7.652344 -14.714844 6.765625 -14.714844 C 6.3125 -14.714844 5.886719 -14.660156 5.484375 -14.550781 C 5.082031 -14.4375 4.675781 -14.292969 4.261719 -14.121094 C 3.855469 -13.9375 3.507812 -13.75 3.222656 -13.558594 C 2.9375 -13.367188 2.722656 -13.222656 2.578125 -13.128906 L 2.230469 -13.128906 L 2.230469 -17.007812 C 2.734375 -17.246094 3.515625 -17.492188 4.582031 -17.742188 C 5.648438 -17.992188 6.675781 -18.117188 7.664062 -18.117188 C 9.769531 -18.117188 11.367188 -17.648438 12.453125 -16.710938 C 13.539062 -15.769531 14.082031 -14.449219 14.082031 -12.746094 C 14.082031 -11.695312 13.835938 -10.667969 13.34375 -9.660156 C 12.851562 -8.65625 12.03125 -7.574219 10.886719 -6.421875 C 10.167969 -5.714844 9.472656 -5.082031 8.796875 -4.53125 C 8.121094 -3.976562 7.628906 -3.585938 7.328125 -3.355469 L 14.859375 -3.355469 Z "/>
</g>
<g id="glyph-0-6">
<path d="M 14.753906 -6.050781 C 14.753906 -4.179688 14.160156 -2.644531 12.972656 -1.4375 C 11.789062 -0.234375 10.160156 0.371094 8.09375 0.371094 C 7.058594 0.371094 6.136719 0.222656 5.324219 -0.078125 C 4.511719 -0.375 3.824219 -0.816406 3.257812 -1.394531 C 2.582031 -2.082031 2.066406 -2.964844 1.707031 -4.046875 C 1.347656 -5.128906 1.167969 -6.421875 1.167969 -7.925781 C 1.167969 -9.484375 1.335938 -10.871094 1.671875 -12.078125 C 2.003906 -13.289062 2.550781 -14.359375 3.304688 -15.289062 C 4.03125 -16.171875 4.976562 -16.863281 6.148438 -17.359375 C 7.316406 -17.859375 8.699219 -18.105469 10.300781 -18.105469 C 10.882812 -18.105469 11.464844 -18.070312 12.050781 -17.992188 C 12.632812 -17.917969 13.035156 -17.855469 13.25 -17.808594 L 13.25 -14.3125 L 12.925781 -14.3125 C 12.71875 -14.414062 12.378906 -14.53125 11.898438 -14.664062 C 11.421875 -14.792969 10.878906 -14.859375 10.265625 -14.859375 C 8.871094 -14.859375 7.796875 -14.492188 7.042969 -13.761719 C 6.285156 -13.03125 5.820312 -11.980469 5.644531 -10.609375 C 6.226562 -10.984375 6.816406 -11.28125 7.417969 -11.507812 C 8.019531 -11.730469 8.695312 -11.839844 9.453125 -11.839844 C 10.089844 -11.839844 10.6875 -11.753906 11.25 -11.582031 C 11.808594 -11.414062 12.308594 -11.164062 12.746094 -10.835938 C 13.359375 -10.367188 13.847656 -9.75 14.210938 -8.988281 C 14.570312 -8.222656 14.753906 -7.246094 14.753906 -6.050781 M 9.574219 -3.367188 C 9.804688 -3.652344 9.980469 -3.964844 10.101562 -4.304688 C 10.226562 -4.640625 10.289062 -5.152344 10.289062 -5.835938 C 10.289062 -6.410156 10.21875 -6.882812 10.074219 -7.257812 C 9.929688 -7.628906 9.726562 -7.929688 9.464844 -8.152344 C 9.203125 -8.375 8.902344 -8.527344 8.570312 -8.613281 C 8.234375 -8.695312 7.882812 -8.738281 7.507812 -8.738281 C 7.195312 -8.738281 6.875 -8.695312 6.546875 -8.617188 C 6.214844 -8.539062 5.90625 -8.4375 5.621094 -8.320312 C 5.621094 -8.238281 5.617188 -8.109375 5.609375 -7.925781 C 5.601562 -7.742188 5.597656 -7.511719 5.597656 -7.234375 C 5.597656 -6.214844 5.6875 -5.394531 5.867188 -4.773438 C 6.046875 -4.152344 6.269531 -3.683594 6.539062 -3.367188 C 6.746094 -3.109375 6.984375 -2.929688 7.25 -2.816406 C 7.515625 -2.707031 7.796875 -2.648438 8.09375 -2.648438 C 8.332031 -2.648438 8.589844 -2.710938 8.867188 -2.828125 C 9.148438 -2.949219 9.382812 -3.128906 9.574219 -3.367188 Z "/>
</g>
</g>
</defs>
<g fill="rgb(100%, 100%, 100%)" fill-opacity="1">
<use xlink:href="#glyph-0-0" x="30" y="44.455078"/>
<use xlink:href="#glyph-0-1" x="46" y="44.455078"/>
<use xlink:href="#glyph-0-2" x="62" y="44.455078"/>
<use xlink:href="#glyph-0-3" x="78" y="44.455078"/>
<use xlink:href="#glyph-0-4" x="85" y="44.455078"/>
<use xlink:href="#glyph-0-5" x="101" y="44.455078"/>
<use xlink:href="#glyph-0-6" x="117" y="44.455078"/>
</g>
</svg>
