<?xml version="1.0" encoding="UTF-8"?>
<svg xmlns="http://www.w3.org/2000/svg" xmlns:xlink="http://www.w3.org/1999/xlink" width="854" height="480" viewBox="0 0 854 480">
<defs>
<g>
<g id="glyph-0-0">
<path d="M 5.742188 0 L 0.695312 0 L 0.695312 -1.121094 C 1.125 -1.457031 1.507812 -1.777344 1.847656 -2.078125 C 2.1875 -2.382812 2.484375 -2.667969 2.742188 -2.9375 C 3.078125 -3.289062 3.320312 -3.601562 3.472656 -3.867188 C 3.621094 -4.136719 3.699219 -4.410156 3.699219 -4.695312 C 3.699219 -5.015625 3.601562 -5.257812 3.414062 -5.429688 C 3.222656 -5.601562 2.957031 -5.6875 2.613281 -5.6875 C 2.4375 -5.6875 2.273438 -5.664062 2.117188 -5.621094 C 1.964844 -5.578125 1.804688 -5.523438 1.644531 -5.457031 C 1.488281 -5.382812 1.355469 -5.3125 1.246094 -5.238281 C 1.132812 -5.164062 1.050781 -5.109375 0.996094 -5.074219 L 0.863281 -5.074219 L 0.863281 -6.570312 C 1.054688 -6.664062 1.359375 -6.757812 1.769531 -6.855469 C 2.183594 -6.953125 2.578125 -7 2.960938 -7 C 3.773438 -7 4.390625 -6.820312 4.8125 -6.457031 C 5.230469 -6.09375 5.441406 -5.582031 5.441406 -4.925781 C 5.441406 -4.519531 5.347656 -4.121094 5.15625 -3.734375 C 4.964844 -3.34375 4.648438 -2.925781 4.207031 -2.480469 C 3.929688 -2.207031 3.660156 -1.964844 3.398438 -1.75 C 3.136719 -1.535156 2.949219 -1.386719 2.832031 -1.296875 L 5.742188 -1.296875 Z "/>
</g>
<g id="glyph-0-1">
<path d="M 5.652344 -3.433594 C 5.652344 -2.84375 5.605469 -2.324219 5.511719 -1.875 C 5.414062 -1.429688 5.261719 -1.058594 5.054688 -0.761719 C 4.84375 -0.460938 4.574219 -0.238281 4.238281 -0.0859375 C 3.902344 0.0664062 3.492188 0.144531 3.007812 0.144531 C 2.523438 0.144531 2.113281 0.0664062 1.78125 -0.0859375 C 1.445312 -0.238281 1.171875 -0.464844 0.960938 -0.769531 C 0.75 -1.070312 0.597656 -1.441406 0.503906 -1.882812 C 0.40625 -2.324219 0.359375 -2.839844 0.359375 -3.429688 C 0.359375 -4.039062 0.40625 -4.558594 0.5 -4.988281 C 0.59375 -5.417969 0.75 -5.789062 0.96875 -6.101562 C 1.183594 -6.40625 1.460938 -6.632812 1.796875 -6.78125 C 2.136719 -6.929688 2.539062 -7.003906 3.007812 -7.003906 C 3.5 -7.003906 3.914062 -6.925781 4.246094 -6.773438 C 4.574219 -6.617188 4.847656 -6.386719 5.058594 -6.078125 C 5.269531 -5.777344 5.417969 -5.40625 5.511719 -4.960938 C 5.605469 -4.519531 5.652344 -4.011719 5.652344 -3.433594 M 3.925781 -3.433594 C 3.925781 -4.285156 3.855469 -4.878906 3.714844 -5.222656 C 3.574219 -5.566406 3.339844 -5.738281 3.007812 -5.738281 C 2.675781 -5.738281 2.441406 -5.566406 2.300781 -5.222656 C 2.160156 -4.878906 2.089844 -4.28125 2.089844 -3.425781 C 2.089844 -2.589844 2.160156 -1.996094 2.300781 -1.648438 C 2.441406 -1.300781 2.675781 -1.125 3.007812 -1.125 C 3.335938 -1.125 3.570312 -1.300781 3.710938 -1.648438 C 3.855469 -1.996094 3.925781 -2.59375 3.925781 -3.433594 Z "/>
</g>
</g>
</defs>
<g fill="rgb(43.137255%, 90.588235%, 71.764706%)" fill-opacity="1">
<use xlink:href="#glyph-0-0" x="30" y="29.448242"/>
<use xlink:href="#glyph-0-1" x="36" y="29.448242"/>
</g>
</svg>
