<?xml version="1.0" encoding="UTF-8"?>
<svg xmlns="http://www.w3.org/2000/svg" xmlns:xlink="http://www.w3.org/1999/xlink" width="854" height="480" viewBox="0 0 854 480">
<defs>
<g>
<g id="glyph-0-0">
<path d="M 4.105469 -0.03125 L 3.40625 -0.03125 L 3.40625 1.203125 L 2.3125 1.203125 L 2.3125 -0.03125 L 0.160156 -0.03125 L 0.160156 -0.632812 L 2.496094 -3.589844 L 3.40625 -3.589844 L 3.40625 -0.71875 L 4.105469 -0.71875 L 4.105469 -0.03125 M 2.3125 -0.71875 L 2.3125 -2.8125 L 0.660156 -0.71875 Z "/>
</g>
<g id="glyph-0-1">
<path d="M 3.136719 -1.542969 C 3.300781 -1.433594 3.4375 -1.289062 3.546875 -1.105469 C 3.660156 -0.921875 3.714844 -0.695312 3.714844 -0.421875 C 3.714844 0.0546875 3.527344 0.445312 3.160156 0.746094 C 2.789062 1.050781 2.316406 1.203125 1.742188 1.203125 C 1.296875 1.203125 0.925781 1.105469 0.628906 0.914062 C 0.332031 0.722656 0.183594 0.496094 0.183594 0.238281 C 0.183594 0.0820312 0.230469 -0.046875 0.332031 -0.152344 C 0.429688 -0.257812 0.5625 -0.3125 0.726562 -0.3125 C 0.898438 -0.3125 1.039062 -0.265625 1.148438 -0.175781 C 1.257812 -0.0820312 1.3125 0.0429688 1.3125 0.195312 C 1.3125 0.304688 1.292969 0.421875 1.257812 0.550781 C 1.21875 0.679688 1.1875 0.777344 1.164062 0.84375 C 1.21875 0.863281 1.277344 0.878906 1.347656 0.886719 C 1.417969 0.898438 1.480469 0.902344 1.542969 0.902344 C 1.667969 0.902344 1.789062 0.875 1.90625 0.820312 C 2.027344 0.761719 2.128906 0.683594 2.214844 0.578125 C 2.3125 0.453125 2.386719 0.3125 2.433594 0.144531 C 2.484375 -0.0195312 2.507812 -0.210938 2.507812 -0.417969 C 2.507812 -0.726562 2.425781 -0.976562 2.261719 -1.171875 C 2.097656 -1.371094 1.886719 -1.46875 1.625 -1.46875 C 1.425781 -1.46875 1.253906 -1.425781 1.117188 -1.347656 C 0.980469 -1.265625 0.859375 -1.15625 0.75 -1.023438 L 0.496094 -1.109375 L 0.8125 -3.503906 L 3.5625 -3.503906 L 3.5625 -2.605469 L 1.050781 -2.605469 L 0.914062 -1.535156 C 1.03125 -1.605469 1.183594 -1.675781 1.367188 -1.746094 C 1.550781 -1.8125 1.769531 -1.84375 2.019531 -1.84375 C 2.210938 -1.84375 2.402344 -1.824219 2.589844 -1.78125 C 2.777344 -1.738281 2.960938 -1.660156 3.136719 -1.542969 Z "/>
</g>
<g id="glyph-0-2">
<path d="M 2.515625 -3.675781 C 2.515625 -3.371094 2.414062 -3.117188 2.207031 -2.910156 C 2 -2.703125 1.726562 -2.597656 1.394531 -2.597656 C 1.0625 -2.597656 0.796875 -2.703125 0.589844 -2.910156 C 0.382812 -3.121094 0.28125 -3.375 0.28125 -3.675781 C 0.28125 -3.984375 0.386719 -4.242188 0.597656 -4.445312 C 0.808594 -4.652344 1.074219 -4.753906 1.394531 -4.753906 C 1.726562 -4.753906 1.996094 -4.648438 2.203125 -4.441406 C 2.414062 -4.234375 2.515625 -3.980469 2.515625 -3.675781 M 1.929688 -3.648438 C 1.929688 -3.914062 1.882812 -4.113281 1.785156 -4.25 C 1.6875 -4.386719 1.554688 -4.457031 1.394531 -4.457031 C 1.226562 -4.457031 1.097656 -4.386719 1.003906 -4.242188 C 0.910156 -4.101562 0.867188 -3.914062 0.867188 -3.683594 C 0.867188 -3.433594 0.914062 -3.242188 1.007812 -3.101562 C 1.097656 -2.960938 1.234375 -2.890625 1.40625 -2.890625 C 1.554688 -2.890625 1.679688 -2.957031 1.777344 -3.089844 C 1.878906 -3.222656 1.929688 -3.410156 1.929688 -3.648438 Z "/>
</g>
</g>
</defs>
<g fill="rgb(54.509804%, 36.078431%, 96.470588%)" fill-opacity="1">
<use xlink:href="#glyph-0-0" x="30" y="26.112305"/>
<use xlink:href="#glyph-0-1" x="34" y="26.112305"/>
<use xlink:href="#glyph-0-2" x="38" y="26.112305"/>
</g>
</svg>
