<?xml version="1.0" encoding="UTF-8"?>
<svg xmlns="http://www.w3.org/2000/svg" xmlns:xlink="http://www.w3.org/1999/xlink" width="854" height="480" viewBox="0 0 854 480">
<defs>
<g>
<g id="glyph-0-0">
<path d="M 6.554688 -2.445312 C 6.554688 -2.050781 6.480469 -1.691406 6.332031 -1.367188 C 6.1875 -1.042969 5.972656 -0.765625 5.691406 -0.535156 C 5.40625 -0.308594 5.070312 -0.132812 4.683594 -0.0117188 C 4.300781 0.109375 3.832031 0.167969 3.277344 0.167969 C 2.648438 0.167969 2.109375 0.117188 1.65625 0.0117188 C 1.207031 -0.09375 0.839844 -0.210938 0.558594 -0.339844 L 0.558594 -2.09375 L 0.753906 -2.09375 C 1.050781 -1.90625 1.398438 -1.742188 1.796875 -1.605469 C 2.199219 -1.46875 2.5625 -1.398438 2.890625 -1.398438 C 3.085938 -1.398438 3.300781 -1.417969 3.527344 -1.453125 C 3.757812 -1.484375 3.953125 -1.5625 4.105469 -1.675781 C 4.230469 -1.765625 4.328125 -1.878906 4.402344 -2.011719 C 4.476562 -2.140625 4.515625 -2.328125 4.515625 -2.570312 C 4.515625 -2.808594 4.460938 -2.992188 4.355469 -3.121094 C 4.25 -3.25 4.113281 -3.34375 3.9375 -3.402344 C 3.765625 -3.464844 3.558594 -3.496094 3.316406 -3.503906 C 3.074219 -3.511719 2.859375 -3.515625 2.675781 -3.515625 L 2.328125 -3.515625 L 2.328125 -4.9375 L 2.648438 -4.9375 C 2.894531 -4.9375 3.121094 -4.949219 3.324219 -4.96875 C 3.53125 -4.992188 3.707031 -5.035156 3.851562 -5.101562 C 3.996094 -5.167969 4.109375 -5.265625 4.191406 -5.386719 C 4.273438 -5.511719 4.3125 -5.675781 4.3125 -5.886719 C 4.3125 -6.050781 4.273438 -6.183594 4.199219 -6.285156 C 4.125 -6.386719 4.027344 -6.46875 3.917969 -6.527344 C 3.785156 -6.589844 3.636719 -6.636719 3.460938 -6.65625 C 3.289062 -6.679688 3.140625 -6.6875 3.015625 -6.6875 C 2.816406 -6.6875 2.613281 -6.664062 2.410156 -6.617188 C 2.203125 -6.570312 2 -6.511719 1.804688 -6.441406 C 1.65625 -6.382812 1.496094 -6.308594 1.328125 -6.214844 C 1.164062 -6.121094 1.039062 -6.050781 0.960938 -6.003906 L 0.792969 -6.003906 L 0.792969 -7.734375 C 1.070312 -7.855469 1.445312 -7.96875 1.917969 -8.082031 C 2.390625 -8.191406 2.871094 -8.246094 3.363281 -8.246094 C 3.84375 -8.246094 4.261719 -8.203125 4.613281 -8.121094 C 4.964844 -8.039062 5.269531 -7.917969 5.515625 -7.757812 C 5.792969 -7.589844 6 -7.371094 6.136719 -7.109375 C 6.273438 -6.847656 6.34375 -6.550781 6.34375 -6.222656 C 6.34375 -5.761719 6.210938 -5.359375 5.941406 -5.015625 C 5.675781 -4.671875 5.328125 -4.445312 4.894531 -4.34375 L 4.894531 -4.269531 C 5.085938 -4.242188 5.273438 -4.191406 5.453125 -4.125 C 5.636719 -4.054688 5.816406 -3.941406 5.988281 -3.785156 C 6.152344 -3.644531 6.285156 -3.464844 6.394531 -3.242188 C 6.5 -3.019531 6.554688 -2.753906 6.554688 -2.445312 Z "/>
</g>
<g id="glyph-0-1">
<path d="M 6.652344 -4.042969 C 6.652344 -3.34375 6.59375 -2.734375 6.484375 -2.207031 C 6.371094 -1.683594 6.191406 -1.246094 5.945312 -0.894531 C 5.699219 -0.542969 5.378906 -0.28125 4.984375 -0.101562 C 4.589844 0.078125 4.109375 0.167969 3.539062 0.167969 C 2.96875 0.167969 2.488281 0.078125 2.09375 -0.101562 C 1.699219 -0.28125 1.378906 -0.546875 1.128906 -0.90625 C 0.882812 -1.261719 0.703125 -1.695312 0.589844 -2.214844 C 0.480469 -2.734375 0.421875 -3.34375 0.421875 -4.035156 C 0.421875 -4.753906 0.476562 -5.363281 0.589844 -5.871094 C 0.699219 -6.375 0.882812 -6.8125 1.140625 -7.175781 C 1.390625 -7.535156 1.71875 -7.800781 2.117188 -7.976562 C 2.511719 -8.152344 2.988281 -8.242188 3.539062 -8.242188 C 4.121094 -8.242188 4.605469 -8.148438 4.992188 -7.96875 C 5.382812 -7.785156 5.703125 -7.511719 5.953125 -7.148438 C 6.199219 -6.796875 6.375 -6.359375 6.484375 -5.835938 C 6.597656 -5.316406 6.652344 -4.71875 6.652344 -4.042969 M 4.617188 -4.042969 C 4.617188 -5.039062 4.535156 -5.742188 4.371094 -6.144531 C 4.207031 -6.546875 3.929688 -6.75 3.539062 -6.75 C 3.148438 -6.75 2.875 -6.546875 2.707031 -6.144531 C 2.539062 -5.742188 2.457031 -5.035156 2.457031 -4.03125 C 2.457031 -3.046875 2.539062 -2.351562 2.707031 -1.941406 C 2.875 -1.527344 3.148438 -1.324219 3.539062 -1.324219 C 3.925781 -1.324219 4.199219 -1.527344 4.367188 -1.941406 C 4.535156 -2.351562 4.617188 -3.050781 4.617188 -4.042969 Z "/>
</g>
<g id="glyph-0-2">
</g>
</g>
</defs>
<g fill="rgb(100%, 100%, 100%)" fill-opacity="1">
<use xlink:href="#glyph-0-0" x="30" y="31.116211"/>
<use xlink:href="#glyph-0-1" x="37" y="31.116211"/>
<use xlink:href="#glyph-0-1" x="44" y="31.116211"/>
<use xlink:href="#glyph-0-2" x="51" y="31.116211"/>
<use xlink:href="#glyph-0-1" x="54" y="31.116211"/>
<use xlink:href="#glyph-0-1" x="61" y="31.116211"/>
<use xlink:href="#glyph-0-1" x="68" y="31.116211"/>
</g>
</svg>
