<?xml version="1.0" encoding="UTF-8"?>
<svg xmlns="http://www.w3.org/2000/svg" xmlns:xlink="http://www.w3.org/1999/xlink" width="854" height="480" viewBox="0 0 854 480">
<defs>
<g>
<g id="glyph-0-0">
<path d="M 6.734375 -2.25 C 6.734375 -1.902344 6.660156 -1.582031 6.519531 -1.28125 C 6.375 -0.984375 6.167969 -0.726562 5.890625 -0.511719 C 5.617188 -0.292969 5.28125 -0.121094 4.886719 0 C 4.488281 0.121094 4.035156 0.183594 3.527344 0.183594 C 2.984375 0.183594 2.507812 0.121094 2.097656 -0.00390625 C 1.691406 -0.128906 1.355469 -0.296875 1.097656 -0.511719 C 0.839844 -0.722656 0.648438 -0.976562 0.527344 -1.265625 C 0.402344 -1.554688 0.339844 -1.859375 0.339844 -2.179688 C 0.339844 -2.644531 0.46875 -3.027344 0.722656 -3.335938 C 0.980469 -3.644531 1.347656 -3.902344 1.832031 -4.105469 L 1.832031 -4.140625 C 1.359375 -4.371094 1.027344 -4.652344 0.839844 -4.980469 C 0.652344 -5.308594 0.558594 -5.675781 0.558594 -6.082031 C 0.558594 -6.378906 0.625 -6.65625 0.753906 -6.917969 C 0.882812 -7.175781 1.078125 -7.410156 1.339844 -7.617188 C 1.585938 -7.8125 1.898438 -7.96875 2.277344 -8.085938 C 2.652344 -8.203125 3.078125 -8.261719 3.546875 -8.261719 C 4.046875 -8.261719 4.480469 -8.210938 4.851562 -8.101562 C 5.222656 -7.996094 5.527344 -7.855469 5.765625 -7.683594 C 6.011719 -7.503906 6.199219 -7.289062 6.332031 -7.039062 C 6.460938 -6.789062 6.527344 -6.515625 6.527344 -6.222656 C 6.527344 -5.839844 6.414062 -5.492188 6.191406 -5.183594 C 5.96875 -4.875 5.628906 -4.613281 5.171875 -4.40625 L 5.171875 -4.371094 C 5.707031 -4.15625 6.101562 -3.871094 6.351562 -3.519531 C 6.605469 -3.164062 6.734375 -2.742188 6.734375 -2.25 M 4.5625 -5.984375 C 4.5625 -6.257812 4.472656 -6.476562 4.292969 -6.644531 C 4.109375 -6.808594 3.863281 -6.890625 3.554688 -6.890625 C 3.257812 -6.890625 3.015625 -6.816406 2.835938 -6.667969 C 2.652344 -6.519531 2.5625 -6.335938 2.5625 -6.121094 C 2.5625 -5.902344 2.617188 -5.726562 2.726562 -5.597656 C 2.835938 -5.464844 3.007812 -5.34375 3.238281 -5.230469 C 3.339844 -5.179688 3.460938 -5.125 3.597656 -5.074219 C 3.738281 -5.019531 3.925781 -4.949219 4.15625 -4.859375 C 4.296875 -5.046875 4.398438 -5.222656 4.464844 -5.394531 C 4.53125 -5.566406 4.5625 -5.761719 4.5625 -5.984375 M 4.730469 -2.164062 C 4.730469 -2.429688 4.675781 -2.632812 4.5625 -2.773438 C 4.449219 -2.914062 4.210938 -3.074219 3.839844 -3.25 C 3.734375 -3.300781 3.585938 -3.363281 3.386719 -3.441406 C 3.191406 -3.515625 3.015625 -3.585938 2.863281 -3.652344 C 2.722656 -3.511719 2.597656 -3.335938 2.488281 -3.128906 C 2.378906 -2.917969 2.320312 -2.691406 2.320312 -2.441406 C 2.320312 -2.066406 2.441406 -1.765625 2.679688 -1.539062 C 2.917969 -1.316406 3.234375 -1.203125 3.625 -1.203125 C 3.730469 -1.203125 3.847656 -1.222656 3.984375 -1.257812 C 4.121094 -1.289062 4.242188 -1.34375 4.34375 -1.414062 C 4.460938 -1.5 4.554688 -1.597656 4.625 -1.707031 C 4.695312 -1.820312 4.730469 -1.972656 4.730469 -2.164062 Z "/>
</g>
<g id="glyph-0-1">
<path d="M 6.652344 -4.042969 C 6.652344 -3.34375 6.59375 -2.734375 6.484375 -2.207031 C 6.371094 -1.683594 6.191406 -1.246094 5.945312 -0.894531 C 5.699219 -0.542969 5.378906 -0.28125 4.984375 -0.101562 C 4.589844 0.078125 4.109375 0.167969 3.539062 0.167969 C 2.96875 0.167969 2.488281 0.078125 2.09375 -0.101562 C 1.699219 -0.28125 1.378906 -0.546875 1.128906 -0.90625 C 0.882812 -1.261719 0.703125 -1.695312 0.589844 -2.214844 C 0.480469 -2.734375 0.421875 -3.34375 0.421875 -4.035156 C 0.421875 -4.753906 0.476562 -5.363281 0.589844 -5.871094 C 0.699219 -6.375 0.882812 -6.8125 1.140625 -7.175781 C 1.390625 -7.535156 1.71875 -7.800781 2.117188 -7.976562 C 2.511719 -8.152344 2.988281 -8.242188 3.539062 -8.242188 C 4.121094 -8.242188 4.605469 -8.148438 4.992188 -7.96875 C 5.382812 -7.785156 5.703125 -7.511719 5.953125 -7.148438 C 6.199219 -6.796875 6.375 -6.359375 6.484375 -5.835938 C 6.597656 -5.316406 6.652344 -4.71875 6.652344 -4.042969 M 4.617188 -4.042969 C 4.617188 -5.039062 4.535156 -5.742188 4.371094 -6.144531 C 4.207031 -6.546875 3.929688 -6.75 3.539062 -6.75 C 3.148438 -6.75 2.875 -6.546875 2.707031 -6.144531 C 2.539062 -5.742188 2.457031 -5.035156 2.457031 -4.03125 C 2.457031 -3.046875 2.539062 -2.351562 2.707031 -1.941406 C 2.875 -1.527344 3.148438 -1.324219 3.539062 -1.324219 C 3.925781 -1.324219 4.199219 -1.527344 4.367188 -1.941406 C 4.535156 -2.351562 4.617188 -3.050781 4.617188 -4.042969 Z "/>
</g>
</g>
</defs>
<g fill="rgb(100%, 100%, 100%)" fill-opacity="1">
<use xlink:href="#glyph-0-0" x="30" y="31.116211"/>
<use xlink:href="#glyph-0-1" x="37" y="31.116211"/>
<use xlink:href="#glyph-0-1" x="44" y="31.116211"/>
</g>
</svg>
