<?xml version="1.0" encoding="UTF-8"?>
<svg xmlns="http://www.w3.org/2000/svg" xmlns:xlink="http://www.w3.org/1999/xlink" width="854" height="480" viewBox="0 0 854 480">
<defs>
<g>
<g id="glyph-0-0">
<path d="M 1.292969 0.046875 C 1.121094 0.046875 0.964844 0.0195312 0.820312 -0.0390625 C 0.675781 -0.0976562 0.550781 -0.183594 0.445312 -0.296875 C 0.339844 -0.410156 0.261719 -0.550781 0.203125 -0.722656 C 0.144531 -0.894531 0.117188 -1.089844 0.117188 -1.308594 C 0.117188 -1.53125 0.144531 -1.722656 0.199219 -1.882812 C 0.257812 -2.046875 0.335938 -2.191406 0.445312 -2.3125 C 0.550781 -2.429688 0.671875 -2.519531 0.816406 -2.582031 C 0.960938 -2.640625 1.121094 -2.671875 1.296875 -2.671875 C 1.386719 -2.671875 1.46875 -2.667969 1.546875 -2.652344 C 1.621094 -2.640625 1.695312 -2.625 1.757812 -2.605469 C 1.816406 -2.585938 1.875 -2.5625 1.933594 -2.539062 C 1.992188 -2.511719 2.050781 -2.480469 2.109375 -2.449219 L 2.109375 -2.027344 L 2.082031 -2.027344 C 2.050781 -2.058594 2.011719 -2.089844 1.960938 -2.132812 C 1.914062 -2.171875 1.855469 -2.210938 1.785156 -2.25 C 1.71875 -2.285156 1.644531 -2.316406 1.566406 -2.339844 C 1.488281 -2.363281 1.398438 -2.375 1.292969 -2.375 C 1.183594 -2.375 1.078125 -2.351562 0.976562 -2.304688 C 0.875 -2.261719 0.789062 -2.191406 0.714844 -2.101562 C 0.640625 -2.015625 0.582031 -1.902344 0.542969 -1.765625 C 0.5 -1.632812 0.480469 -1.480469 0.480469 -1.308594 C 0.480469 -1.128906 0.5 -0.976562 0.542969 -0.84375 C 0.589844 -0.714844 0.648438 -0.605469 0.722656 -0.515625 C 0.796875 -0.429688 0.882812 -0.363281 0.980469 -0.320312 C 1.078125 -0.277344 1.183594 -0.253906 1.292969 -0.253906 C 1.394531 -0.253906 1.488281 -0.265625 1.574219 -0.289062 C 1.660156 -0.316406 1.738281 -0.347656 1.804688 -0.382812 C 1.867188 -0.421875 1.925781 -0.457031 1.972656 -0.496094 C 2.019531 -0.535156 2.054688 -0.566406 2.082031 -0.59375 L 2.109375 -0.59375 L 2.109375 -0.179688 C 2.050781 -0.152344 1.996094 -0.125 1.945312 -0.101562 C 1.894531 -0.0742188 1.832031 -0.0507812 1.757812 -0.0273438 C 1.683594 -0.00390625 1.613281 0.015625 1.546875 0.0273438 C 1.480469 0.0429688 1.398438 0.046875 1.292969 0.046875 Z "/>
</g>
<g id="glyph-0-1">
<path d="M 1.679688 -1.679688 L 1.007812 -1.679688 L 1.007812 0 L 0.675781 0 L 0.675781 -1.679688 L 0.0078125 -1.679688 L 0.0078125 -1.96875 L 1.679688 -1.96875 Z "/>
</g>
<g id="glyph-0-2">
<path d="M 1.859375 -0.984375 C 1.859375 -0.652344 1.78125 -0.394531 1.621094 -0.214844 C 1.460938 -0.0351562 1.246094 0.0546875 0.980469 0.0546875 C 0.707031 0.0546875 0.492188 -0.0390625 0.335938 -0.226562 C 0.179688 -0.410156 0.101562 -0.664062 0.101562 -0.984375 C 0.101562 -1.3125 0.179688 -1.570312 0.34375 -1.75 C 0.503906 -1.933594 0.71875 -2.023438 0.980469 -2.023438 C 1.246094 -2.023438 1.460938 -1.933594 1.621094 -1.75 C 1.78125 -1.570312 1.859375 -1.3125 1.859375 -0.984375 M 1.519531 -0.984375 C 1.519531 -1.238281 1.472656 -1.429688 1.378906 -1.550781 C 1.285156 -1.675781 1.152344 -1.738281 0.980469 -1.738281 C 0.808594 -1.738281 0.675781 -1.675781 0.582031 -1.550781 C 0.488281 -1.429688 0.441406 -1.238281 0.441406 -0.984375 C 0.441406 -0.738281 0.488281 -0.550781 0.582031 -0.421875 C 0.675781 -0.292969 0.808594 -0.230469 0.980469 -0.230469 C 1.152344 -0.230469 1.285156 -0.292969 1.378906 -0.417969 C 1.472656 -0.542969 1.519531 -0.730469 1.519531 -0.984375 Z "/>
</g>
<g id="glyph-0-3">
<path d="M 1.824219 0 L 1.414062 0 L 0.738281 -0.90625 L 0.570312 -0.90625 L 0.570312 0 L 0.238281 0 L 0.238281 -1.96875 L 0.570312 -1.96875 L 0.570312 -1.113281 C 0.65625 -1.113281 0.730469 -1.132812 0.789062 -1.167969 C 0.851562 -1.199219 0.902344 -1.269531 0.945312 -1.367188 C 0.957031 -1.398438 0.972656 -1.429688 0.988281 -1.46875 C 1.003906 -1.507812 1.015625 -1.542969 1.027344 -1.574219 C 1.078125 -1.71875 1.148438 -1.820312 1.242188 -1.878906 C 1.332031 -1.9375 1.453125 -1.96875 1.597656 -1.96875 L 1.6875 -1.96875 L 1.6875 -1.683594 L 1.613281 -1.683594 C 1.519531 -1.683594 1.449219 -1.664062 1.402344 -1.625 C 1.359375 -1.589844 1.320312 -1.519531 1.285156 -1.417969 C 1.253906 -1.316406 1.214844 -1.234375 1.171875 -1.179688 C 1.125 -1.121094 1.078125 -1.078125 1.023438 -1.046875 Z "/>
</g>
<g id="glyph-0-4">
<path d="M 1.792969 0 L 1.46875 0 L 1.46875 -1.46875 L 0.539062 0 L 0.238281 0 L 0.238281 -1.96875 L 0.566406 -1.96875 L 0.566406 -0.523438 L 1.484375 -1.96875 L 1.792969 -1.96875 Z "/>
</g>
</g>
</defs>
<g fill="rgb(52.54902%, 93.72549%, 67.45098%)" fill-opacity="1">
<use xlink:href="#glyph-0-0" x="30" y="23.612305"/>
<use xlink:href="#glyph-0-1" x="32" y="23.612305"/>
<use xlink:href="#glyph-0-2" x="34" y="23.612305"/>
<use xlink:href="#glyph-0-1" x="36" y="23.612305"/>
<use xlink:href="#glyph-0-3" x="38" y="23.612305"/>
<use xlink:href="#glyph-0-4" x="40" y="23.612305"/>
</g>
</svg>
