<?xml version="1.0" encoding="UTF-8"?>
<svg xmlns="http://www.w3.org/2000/svg" xmlns:xlink="http://www.w3.org/1999/xlink" width="854" height="480" viewBox="0 0 854 480">
<defs>
<g>
<g id="glyph-0-0">
<path d="M 5.589844 -5.5 L 2.664062 0 L 0.746094 0 L 3.8125 -5.570312 L 0.539062 -5.570312 L 0.539062 -6.867188 L 5.589844 -6.867188 Z "/>
</g>
<g id="glyph-0-1">
<path d="M 5.652344 -3.433594 C 5.652344 -2.84375 5.605469 -2.324219 5.511719 -1.875 C 5.414062 -1.429688 5.261719 -1.058594 5.054688 -0.761719 C 4.84375 -0.460938 4.574219 -0.238281 4.238281 -0.0859375 C 3.902344 0.0664062 3.492188 0.144531 3.007812 0.144531 C 2.523438 0.144531 2.113281 0.0664062 1.78125 -0.0859375 C 1.445312 -0.238281 1.171875 -0.464844 0.960938 -0.769531 C 0.75 -1.070312 0.597656 -1.441406 0.503906 -1.882812 C 0.40625 -2.324219 0.359375 -2.839844 0.359375 -3.429688 C 0.359375 -4.039062 0.40625 -4.558594 0.5 -4.988281 C 0.59375 -5.417969 0.75 -5.789062 0.96875 -6.101562 C 1.183594 -6.40625 1.460938 -6.632812 1.796875 -6.78125 C 2.136719 -6.929688 2.539062 -7.003906 3.007812 -7.003906 C 3.5 -7.003906 3.914062 -6.925781 4.246094 -6.773438 C 4.574219 -6.617188 4.847656 -6.386719 5.058594 -6.078125 C 5.269531 -5.777344 5.417969 -5.40625 5.511719 -4.960938 C 5.605469 -4.519531 5.652344 -4.011719 5.652344 -3.433594 M 3.925781 -3.433594 C 3.925781 -4.285156 3.855469 -4.878906 3.714844 -5.222656 C 3.574219 -5.566406 3.339844 -5.738281 3.007812 -5.738281 C 2.675781 -5.738281 2.441406 -5.566406 2.300781 -5.222656 C 2.160156 -4.878906 2.089844 -4.28125 2.089844 -3.425781 C 2.089844 -2.589844 2.160156 -1.996094 2.300781 -1.648438 C 2.441406 -1.300781 2.675781 -1.125 3.007812 -1.125 C 3.335938 -1.125 3.570312 -1.300781 3.710938 -1.648438 C 3.855469 -1.996094 3.925781 -2.59375 3.925781 -3.433594 Z "/>
</g>
<g id="glyph-0-2">
</g>
</g>
</defs>
<g fill="rgb(98.431373%, 74.901961%, 14.117647%)" fill-opacity="1">
<use xlink:href="#glyph-0-0" x="30" y="29.448242"/>
<use xlink:href="#glyph-0-1" x="36" y="29.448242"/>
<use xlink:href="#glyph-0-2" x="42" y="29.448242"/>
<use xlink:href="#glyph-0-1" x="45" y="29.448242"/>
<use xlink:href="#glyph-0-1" x="51" y="29.448242"/>
<use xlink:href="#glyph-0-1" x="57" y="29.448242"/>
</g>
</svg>
