<?xml version="1.0" encoding="UTF-8"?>
<svg xmlns="http://www.w3.org/2000/svg" xmlns:xlink="http://www.w3.org/1999/xlink" width="854" height="480" viewBox="0 0 854 480">
<defs>
<g>
<g id="glyph-0-0">
<path d="M 2.792969 -2.339844 L 1.015625 0.902344 L 0.648438 0.902344 L 2.296875 -1.972656 L 1.175781 -1.972656 C 1.035156 -1.972656 0.925781 -1.972656 0.84375 -1.96875 C 0.765625 -1.96875 0.691406 -1.953125 0.625 -1.921875 C 0.570312 -1.898438 0.523438 -1.839844 0.488281 -1.75 C 0.449219 -1.664062 0.417969 -1.554688 0.394531 -1.425781 L 0.21875 -1.425781 L 0.21875 -2.628906 L 2.792969 -2.628906 Z "/>
</g>
<g id="glyph-0-1">
<path d="M 2.890625 -2.273438 C 3.015625 -2.144531 3.105469 -1.996094 3.164062 -1.828125 C 3.226562 -1.664062 3.253906 -1.488281 3.253906 -1.3125 C 3.253906 -1.097656 3.21875 -0.90625 3.144531 -0.734375 C 3.070312 -0.5625 2.96875 -0.417969 2.839844 -0.296875 C 2.703125 -0.175781 2.546875 -0.078125 2.367188 -0.015625 C 2.1875 0.0507812 1.984375 0.0820312 1.75 0.0820312 C 1.503906 0.0820312 1.289062 0.0429688 1.101562 -0.03125 C 0.910156 -0.109375 0.753906 -0.210938 0.628906 -0.335938 C 0.507812 -0.457031 0.414062 -0.605469 0.347656 -0.773438 C 0.285156 -0.9375 0.25 -1.117188 0.25 -1.3125 C 0.25 -1.5 0.28125 -1.679688 0.34375 -1.839844 C 0.402344 -2.003906 0.5 -2.152344 0.625 -2.28125 C 0.75 -2.410156 0.90625 -2.515625 1.097656 -2.589844 C 1.285156 -2.667969 1.503906 -2.707031 1.753906 -2.707031 C 2.007812 -2.707031 2.230469 -2.667969 2.421875 -2.585938 C 2.613281 -2.507812 2.769531 -2.402344 2.890625 -2.273438 M 2.203125 -0.457031 C 2.25 -0.566406 2.28125 -0.6875 2.304688 -0.820312 C 2.324219 -0.957031 2.335938 -1.117188 2.335938 -1.3125 C 2.335938 -1.484375 2.324219 -1.640625 2.304688 -1.777344 C 2.289062 -1.914062 2.253906 -2.039062 2.210938 -2.144531 C 2.167969 -2.257812 2.105469 -2.34375 2.03125 -2.402344 C 1.957031 -2.460938 1.863281 -2.492188 1.753906 -2.492188 C 1.644531 -2.492188 1.550781 -2.464844 1.476562 -2.402344 C 1.402344 -2.34375 1.339844 -2.261719 1.292969 -2.152344 C 1.25 -2.050781 1.21875 -1.929688 1.203125 -1.785156 C 1.179688 -1.640625 1.171875 -1.484375 1.171875 -1.3125 C 1.171875 -1.128906 1.179688 -0.976562 1.199219 -0.851562 C 1.214844 -0.722656 1.246094 -0.601562 1.292969 -0.484375 C 1.332031 -0.378906 1.390625 -0.292969 1.46875 -0.226562 C 1.542969 -0.160156 1.636719 -0.128906 1.75 -0.128906 C 1.855469 -0.128906 1.945312 -0.160156 2.023438 -0.21875 C 2.097656 -0.277344 2.15625 -0.355469 2.203125 -0.457031 Z "/>
</g>
<g id="glyph-0-2">
<path d="M 1.886719 -2.757812 C 1.886719 -2.527344 1.808594 -2.335938 1.652344 -2.179688 C 1.5 -2.027344 1.296875 -1.949219 1.046875 -1.949219 C 0.796875 -1.949219 0.597656 -2.027344 0.441406 -2.183594 C 0.289062 -2.339844 0.210938 -2.53125 0.210938 -2.757812 C 0.210938 -2.988281 0.289062 -3.183594 0.449219 -3.335938 C 0.605469 -3.488281 0.804688 -3.5625 1.046875 -3.5625 C 1.292969 -3.5625 1.496094 -3.488281 1.652344 -3.332031 C 1.808594 -3.175781 1.886719 -2.984375 1.886719 -2.757812 M 1.449219 -2.738281 C 1.449219 -2.933594 1.410156 -3.085938 1.335938 -3.1875 C 1.265625 -3.289062 1.167969 -3.34375 1.046875 -3.34375 C 0.917969 -3.34375 0.824219 -3.289062 0.753906 -3.183594 C 0.683594 -3.074219 0.648438 -2.9375 0.648438 -2.765625 C 0.648438 -2.578125 0.683594 -2.429688 0.753906 -2.324219 C 0.824219 -2.21875 0.925781 -2.167969 1.054688 -2.167969 C 1.164062 -2.167969 1.257812 -2.21875 1.335938 -2.316406 C 1.410156 -2.417969 1.449219 -2.558594 1.449219 -2.738281 Z "/>
</g>
</g>
</defs>
<g fill="rgb(23.137255%, 50.980392%, 96.470588%)" fill-opacity="1">
<use xlink:href="#glyph-0-0" x="30" y="24.584961"/>
<use xlink:href="#glyph-0-1" x="33" y="24.584961"/>
<use xlink:href="#glyph-0-2" x="37" y="24.584961"/>
</g>
</svg>
