<?xml version="1.0" encoding="UTF-8"?>
<svg xmlns="http://www.w3.org/2000/svg" xmlns:xlink="http://www.w3.org/1999/xlink" width="854" height="480" viewBox="0 0 854 480">
<defs>
<g>
<g id="glyph-0-0">
<path d="M 9.683594 -4.769531 C 9.996094 -4.554688 10.25 -4.285156 10.445312 -3.957031 C 10.640625 -3.632812 10.738281 -3.25 10.738281 -2.8125 C 10.738281 -2.285156 10.625 -1.839844 10.402344 -1.476562 C 10.183594 -1.113281 9.863281 -0.824219 9.449219 -0.617188 C 9.007812 -0.390625 8.503906 -0.230469 7.929688 -0.140625 C 7.355469 -0.046875 6.679688 0 5.902344 0 L 0.503906 0 L 0.503906 -0.570312 C 0.65625 -0.585938 0.847656 -0.609375 1.078125 -0.636719 C 1.304688 -0.667969 1.46875 -0.699219 1.558594 -0.738281 C 1.742188 -0.8125 1.863281 -0.910156 1.929688 -1.027344 C 1.996094 -1.148438 2.027344 -1.304688 2.027344 -1.492188 L 2.027344 -8.820312 C 2.027344 -8.992188 2 -9.140625 1.949219 -9.257812 C 1.894531 -9.375 1.765625 -9.476562 1.558594 -9.566406 C 1.410156 -9.628906 1.234375 -9.679688 1.03125 -9.722656 C 0.832031 -9.765625 0.65625 -9.796875 0.503906 -9.820312 L 0.503906 -10.394531 L 6.152344 -10.394531 C 7.574219 -10.394531 8.597656 -10.199219 9.226562 -9.808594 C 9.859375 -9.417969 10.171875 -8.839844 10.171875 -8.078125 C 10.171875 -7.726562 10.101562 -7.417969 9.960938 -7.152344 C 9.820312 -6.886719 9.617188 -6.65625 9.351562 -6.460938 C 9.113281 -6.277344 8.828125 -6.125 8.496094 -5.992188 C 8.164062 -5.859375 7.808594 -5.75 7.425781 -5.660156 L 7.425781 -5.523438 C 7.808594 -5.484375 8.203125 -5.398438 8.613281 -5.269531 C 9.023438 -5.140625 9.378906 -4.972656 9.683594 -4.769531 M 7.324219 -7.894531 C 7.324219 -8.472656 7.160156 -8.921875 6.835938 -9.242188 C 6.511719 -9.566406 6.023438 -9.726562 5.375 -9.726562 C 5.28125 -9.726562 5.164062 -9.722656 5.011719 -9.714844 C 4.863281 -9.707031 4.734375 -9.703125 4.628906 -9.695312 L 4.628906 -5.84375 L 5.007812 -5.84375 C 5.800781 -5.84375 6.382812 -6.027344 6.761719 -6.398438 C 7.136719 -6.765625 7.324219 -7.265625 7.324219 -7.894531 M 7.835938 -2.902344 C 7.835938 -3.628906 7.621094 -4.183594 7.191406 -4.570312 C 6.761719 -4.957031 6.144531 -5.148438 5.339844 -5.148438 C 5.246094 -5.148438 5.125 -5.144531 4.96875 -5.136719 C 4.816406 -5.128906 4.703125 -5.125 4.628906 -5.121094 L 4.628906 -1.3125 C 4.671875 -1.132812 4.808594 -0.976562 5.039062 -0.855469 C 5.269531 -0.730469 5.546875 -0.667969 5.875 -0.667969 C 6.453125 -0.667969 6.925781 -0.863281 7.292969 -1.253906 C 7.65625 -1.644531 7.835938 -2.195312 7.835938 -2.902344 Z "/>
</g>
<g id="glyph-0-1">
<path d="M 10.304688 0 L 5.882812 0 L 5.882812 -0.535156 C 5.964844 -0.550781 6.066406 -0.566406 6.1875 -0.589844 C 6.3125 -0.613281 6.421875 -0.652344 6.519531 -0.710938 C 6.636719 -0.777344 6.71875 -0.863281 6.765625 -0.964844 C 6.808594 -1.0625 6.832031 -1.207031 6.832031 -1.398438 L 6.832031 -4.847656 L 3.902344 -1.382812 L 3.902344 -1.363281 C 3.902344 -1.1875 3.925781 -1.046875 3.972656 -0.941406 C 4.019531 -0.835938 4.101562 -0.75 4.21875 -0.6875 C 4.296875 -0.644531 4.394531 -0.613281 4.515625 -0.589844 C 4.636719 -0.566406 4.753906 -0.550781 4.878906 -0.535156 L 4.878906 0 L 0.453125 0 L 0.453125 -0.535156 C 0.574219 -0.542969 0.699219 -0.558594 0.824219 -0.574219 C 0.949219 -0.59375 1.054688 -0.617188 1.140625 -0.644531 C 1.296875 -0.699219 1.40625 -0.78125 1.464844 -0.894531 C 1.523438 -1.003906 1.554688 -1.152344 1.554688 -1.332031 L 1.554688 -5.933594 C 1.554688 -6.101562 1.523438 -6.25 1.460938 -6.367188 C 1.398438 -6.488281 1.292969 -6.570312 1.140625 -6.621094 C 1.015625 -6.660156 0.898438 -6.6875 0.789062 -6.699219 C 0.683594 -6.710938 0.570312 -6.722656 0.453125 -6.730469 L 0.453125 -7.265625 L 4.878906 -7.265625 L 4.878906 -6.730469 C 4.761719 -6.714844 4.652344 -6.699219 4.550781 -6.675781 C 4.453125 -6.652344 4.347656 -6.613281 4.242188 -6.554688 C 4.125 -6.492188 4.042969 -6.402344 3.996094 -6.285156 C 3.949219 -6.167969 3.925781 -6.027344 3.925781 -5.867188 L 3.925781 -2.417969 L 6.855469 -5.882812 L 6.855469 -5.902344 C 6.855469 -6.078125 6.832031 -6.21875 6.785156 -6.324219 C 6.738281 -6.429688 6.65625 -6.511719 6.539062 -6.578125 C 6.449219 -6.628906 6.335938 -6.667969 6.207031 -6.683594 C 6.078125 -6.699219 5.96875 -6.714844 5.882812 -6.730469 L 5.882812 -7.265625 L 10.304688 -7.265625 L 10.304688 -6.730469 C 10.160156 -6.722656 10.035156 -6.710938 9.9375 -6.695312 C 9.839844 -6.679688 9.734375 -6.65625 9.617188 -6.621094 C 9.476562 -6.578125 9.371094 -6.496094 9.304688 -6.382812 C 9.238281 -6.269531 9.207031 -6.117188 9.207031 -5.933594 L 9.207031 -1.332031 C 9.207031 -1.15625 9.238281 -1.007812 9.296875 -0.890625 C 9.359375 -0.769531 9.464844 -0.6875 9.617188 -0.644531 C 9.734375 -0.609375 9.835938 -0.585938 9.929688 -0.570312 C 10.019531 -0.554688 10.144531 -0.542969 10.304688 -0.535156 Z "/>
</g>
<g id="glyph-0-2">
<path d="M 0.921875 -0.695312 C 1.402344 -1.34375 1.816406 -2.183594 2.167969 -3.210938 C 2.519531 -4.238281 2.695312 -5.070312 2.695312 -5.707031 C 2.695312 -5.941406 2.664062 -6.117188 2.609375 -6.234375 C 2.546875 -6.351562 2.449219 -6.441406 2.3125 -6.511719 C 2.222656 -6.558594 2.070312 -6.605469 1.859375 -6.648438 C 1.648438 -6.6875 1.480469 -6.714844 1.347656 -6.730469 L 1.347656 -7.265625 L 8.722656 -7.265625 L 8.722656 -6.730469 C 8.578125 -6.722656 8.453125 -6.710938 8.355469 -6.695312 C 8.257812 -6.679688 8.152344 -6.65625 8.035156 -6.621094 C 7.894531 -6.578125 7.789062 -6.496094 7.722656 -6.382812 C 7.65625 -6.269531 7.625 -6.117188 7.625 -5.933594 L 7.625 -1.382812 C 7.625 -1.125 7.660156 -0.941406 7.734375 -0.832031 C 7.808594 -0.722656 8.003906 -0.667969 8.328125 -0.667969 L 8.921875 -0.667969 L 8.921875 2.351562 L 8.453125 2.351562 C 8.382812 2.183594 8.300781 1.992188 8.203125 1.773438 C 8.105469 1.554688 7.953125 1.296875 7.742188 1.003906 C 7.554688 0.738281 7.351562 0.515625 7.121094 0.324219 C 6.894531 0.136719 6.628906 0.0273438 6.328125 0 C 6.152344 -0.015625 5.945312 -0.0234375 5.710938 -0.0273438 C 5.472656 -0.0273438 5.289062 -0.03125 5.164062 -0.03125 L 3.816406 -0.03125 C 3.617188 -0.03125 3.417969 -0.0273438 3.226562 -0.0273438 C 3.035156 -0.0234375 2.84375 -0.015625 2.652344 0 C 2.367188 0.0234375 2.105469 0.132812 1.867188 0.328125 C 1.628906 0.523438 1.414062 0.75 1.230469 1.003906 C 1.042969 1.261719 0.894531 1.519531 0.78125 1.773438 C 0.664062 2.027344 0.582031 2.21875 0.527344 2.351562 L 0.0585938 2.351562 L 0.0585938 -0.695312 L 0.921875 -0.695312 M 1.851562 -0.695312 L 4.601562 -0.695312 C 4.847656 -0.695312 5.015625 -0.734375 5.097656 -0.804688 C 5.179688 -0.878906 5.222656 -1.015625 5.222656 -1.214844 L 5.222656 -6.5625 L 3.558594 -6.5625 C 3.550781 -5.566406 3.398438 -4.535156 3.109375 -3.472656 C 2.820312 -2.40625 2.398438 -1.480469 1.851562 -0.695312 Z "/>
</g>
<g id="glyph-0-3">
<path d="M 7.902344 -6.402344 C 8.265625 -6.0625 8.539062 -5.660156 8.730469 -5.191406 C 8.921875 -4.722656 9.015625 -4.214844 9.015625 -3.667969 C 9.015625 -3.128906 8.921875 -2.617188 8.734375 -2.136719 C 8.546875 -1.652344 8.269531 -1.242188 7.910156 -0.902344 C 7.523438 -0.535156 7.0625 -0.253906 6.53125 -0.0585938 C 5.996094 0.136719 5.382812 0.234375 4.695312 0.234375 C 4.097656 0.234375 3.550781 0.148438 3.050781 -0.0234375 C 2.550781 -0.191406 2.105469 -0.449219 1.722656 -0.789062 C 1.351562 -1.117188 1.058594 -1.523438 0.84375 -2.003906 C 0.628906 -2.484375 0.519531 -3.023438 0.519531 -3.617188 C 0.519531 -4.203125 0.613281 -4.726562 0.800781 -5.183594 C 0.988281 -5.636719 1.273438 -6.042969 1.648438 -6.402344 C 2.007812 -6.742188 2.453125 -7.007812 2.984375 -7.195312 C 3.515625 -7.382812 4.105469 -7.476562 4.761719 -7.476562 C 5.445312 -7.476562 6.046875 -7.382812 6.566406 -7.195312 C 7.085938 -7.007812 7.53125 -6.742188 7.902344 -6.402344 M 6.027344 -1.324219 C 6.136719 -1.597656 6.214844 -1.929688 6.265625 -2.320312 C 6.316406 -2.710938 6.34375 -3.167969 6.34375 -3.683594 C 6.34375 -4.027344 6.316406 -4.417969 6.269531 -4.855469 C 6.21875 -5.296875 6.148438 -5.640625 6.050781 -5.894531 C 5.933594 -6.203125 5.769531 -6.445312 5.5625 -6.621094 C 5.355469 -6.796875 5.09375 -6.882812 4.773438 -6.882812 C 4.429688 -6.882812 4.152344 -6.789062 3.945312 -6.597656 C 3.738281 -6.410156 3.578125 -6.160156 3.464844 -5.859375 C 3.363281 -5.582031 3.289062 -5.253906 3.25 -4.882812 C 3.210938 -4.507812 3.195312 -4.117188 3.195312 -3.714844 C 3.195312 -3.179688 3.210938 -2.742188 3.246094 -2.390625 C 3.277344 -2.042969 3.363281 -1.691406 3.492188 -1.339844 C 3.605469 -1.039062 3.765625 -0.796875 3.976562 -0.621094 C 4.1875 -0.445312 4.453125 -0.359375 4.773438 -0.359375 C 5.070312 -0.359375 5.320312 -0.441406 5.53125 -0.605469 C 5.738281 -0.769531 5.90625 -1.007812 6.027344 -1.324219 Z "/>
</g>
<g id="glyph-0-4">
<path d="M 6.160156 -2.125 C 6.160156 -2.515625 6.042969 -2.835938 5.808594 -3.089844 C 5.574219 -3.34375 5.203125 -3.472656 4.695312 -3.472656 C 4.496094 -3.472656 4.339844 -3.464844 4.226562 -3.457031 C 4.113281 -3.445312 4.015625 -3.441406 3.933594 -3.441406 L 3.933594 -1.105469 C 3.933594 -0.910156 3.992188 -0.761719 4.117188 -0.65625 C 4.238281 -0.550781 4.4375 -0.5 4.710938 -0.5 C 4.992188 -0.5 5.230469 -0.542969 5.425781 -0.636719 C 5.621094 -0.730469 5.773438 -0.855469 5.882812 -1.019531 C 5.984375 -1.175781 6.054688 -1.34375 6.097656 -1.527344 C 6.140625 -1.710938 6.160156 -1.910156 6.160156 -2.125 M 8.765625 -2 C 8.765625 -1.632812 8.679688 -1.320312 8.511719 -1.058594 C 8.339844 -0.796875 8.101562 -0.585938 7.800781 -0.425781 C 7.472656 -0.253906 7.117188 -0.132812 6.734375 -0.0625 C 6.351562 0.0078125 5.898438 0.0429688 5.375 0.0429688 C 4.140625 0.0429688 3.1875 0.0351562 2.511719 0.0234375 C 1.839844 0.0078125 1.152344 0 0.453125 0 L 0.453125 -0.535156 C 0.574219 -0.542969 0.699219 -0.558594 0.824219 -0.574219 C 0.949219 -0.59375 1.054688 -0.617188 1.140625 -0.644531 C 1.296875 -0.699219 1.40625 -0.78125 1.464844 -0.894531 C 1.523438 -1.003906 1.554688 -1.152344 1.554688 -1.332031 L 1.554688 -5.933594 C 1.554688 -6.101562 1.523438 -6.25 1.460938 -6.367188 C 1.398438 -6.488281 1.292969 -6.570312 1.140625 -6.621094 C 1.015625 -6.660156 0.898438 -6.6875 0.789062 -6.699219 C 0.683594 -6.710938 0.570312 -6.722656 0.453125 -6.730469 L 0.453125 -7.265625 C 1.472656 -7.265625 2.359375 -7.273438 3.105469 -7.285156 C 3.851562 -7.296875 4.585938 -7.300781 5.304688 -7.300781 C 5.710938 -7.300781 6.105469 -7.273438 6.476562 -7.21875 C 6.851562 -7.160156 7.179688 -7.070312 7.457031 -6.945312 C 7.734375 -6.816406 7.957031 -6.644531 8.125 -6.421875 C 8.292969 -6.203125 8.378906 -5.933594 8.378906 -5.609375 C 8.378906 -5.125 8.21875 -4.742188 7.902344 -4.457031 C 7.585938 -4.171875 7.148438 -3.976562 6.59375 -3.875 L 6.59375 -3.765625 C 6.871094 -3.730469 7.140625 -3.675781 7.410156 -3.601562 C 7.675781 -3.523438 7.90625 -3.421875 8.101562 -3.289062 C 8.308594 -3.148438 8.472656 -2.972656 8.589844 -2.761719 C 8.707031 -2.550781 8.765625 -2.296875 8.765625 -2 M 5.882812 -5.550781 C 5.882812 -5.800781 5.84375 -6.003906 5.769531 -6.15625 C 5.691406 -6.308594 5.597656 -6.425781 5.484375 -6.503906 C 5.359375 -6.589844 5.21875 -6.648438 5.066406 -6.679688 C 4.910156 -6.707031 4.761719 -6.722656 4.613281 -6.722656 C 4.507812 -6.722656 4.398438 -6.71875 4.285156 -6.710938 C 4.171875 -6.707031 4.054688 -6.699219 3.933594 -6.695312 L 3.933594 -4.070312 L 4.527344 -4.070312 C 4.785156 -4.070312 5.007812 -4.109375 5.191406 -4.183594 C 5.378906 -4.253906 5.519531 -4.363281 5.617188 -4.503906 C 5.710938 -4.625 5.777344 -4.773438 5.820312 -4.953125 C 5.859375 -5.125 5.882812 -5.328125 5.882812 -5.550781 Z "/>
</g>
<g id="glyph-0-5">
</g>
<g id="glyph-0-6">
<path d="M 8.085938 -4.6875 L 7.609375 -4.6875 C 7.570312 -4.808594 7.507812 -4.96875 7.414062 -5.164062 C 7.324219 -5.359375 7.214844 -5.5625 7.082031 -5.773438 C 6.957031 -5.972656 6.8125 -6.148438 6.652344 -6.304688 C 6.496094 -6.460938 6.332031 -6.550781 6.160156 -6.570312 C 6.023438 -6.585938 5.890625 -6.59375 5.765625 -6.597656 C 5.636719 -6.605469 5.480469 -6.605469 5.296875 -6.605469 L 5.296875 -1.339844 C 5.296875 -1.164062 5.324219 -1.015625 5.386719 -0.898438 C 5.449219 -0.777344 5.554688 -0.695312 5.707031 -0.652344 C 5.824219 -0.617188 5.933594 -0.59375 6.042969 -0.574219 C 6.148438 -0.558594 6.285156 -0.542969 6.445312 -0.535156 L 6.445312 0 L 1.742188 0 L 1.742188 -0.535156 C 1.863281 -0.542969 1.996094 -0.558594 2.140625 -0.578125 C 2.28125 -0.597656 2.394531 -0.621094 2.484375 -0.652344 C 2.640625 -0.707031 2.746094 -0.789062 2.804688 -0.902344 C 2.863281 -1.011719 2.894531 -1.160156 2.894531 -1.339844 L 2.894531 -6.605469 C 2.671875 -6.605469 2.507812 -6.605469 2.402344 -6.597656 C 2.292969 -6.59375 2.171875 -6.585938 2.027344 -6.570312 C 1.863281 -6.554688 1.699219 -6.46875 1.539062 -6.304688 C 1.375 -6.144531 1.234375 -5.964844 1.105469 -5.773438 C 0.972656 -5.566406 0.863281 -5.359375 0.773438 -5.148438 C 0.683594 -4.9375 0.617188 -4.785156 0.578125 -4.6875 L 0.101562 -4.6875 L 0.101562 -7.265625 L 8.085938 -7.265625 Z "/>
</g>
<g id="glyph-0-7">
<path d="M 9.34375 -3.566406 C 9.34375 -2.535156 9 -1.652344 8.3125 -0.914062 C 7.625 -0.179688 6.757812 0.191406 5.703125 0.191406 C 5.234375 0.191406 4.855469 0.144531 4.5625 0.046875 C 4.269531 -0.046875 4.027344 -0.164062 3.835938 -0.300781 L 3.78125 -0.300781 L 3.78125 1.757812 C 3.78125 1.929688 3.816406 2.078125 3.894531 2.203125 C 3.96875 2.332031 4.074219 2.425781 4.210938 2.484375 C 4.34375 2.535156 4.53125 2.585938 4.773438 2.628906 C 5.011719 2.671875 5.214844 2.699219 5.375 2.710938 L 5.375 3.25 L 0.0820312 3.25 L 0.0820312 2.710938 C 0.203125 2.699219 0.355469 2.683594 0.542969 2.65625 C 0.726562 2.628906 0.867188 2.601562 0.960938 2.570312 C 1.117188 2.515625 1.222656 2.425781 1.277344 2.296875 C 1.335938 2.167969 1.363281 2.019531 1.363281 1.851562 L 1.363281 -5.640625 C 1.347656 -5.800781 1.308594 -5.941406 1.25 -6.0625 C 1.1875 -6.1875 1.089844 -6.292969 0.960938 -6.386719 C 0.863281 -6.449219 0.730469 -6.503906 0.570312 -6.542969 C 0.410156 -6.585938 0.25 -6.613281 0.09375 -6.628906 L 0.09375 -7.164062 L 3.667969 -7.351562 L 3.78125 -7.257812 L 3.78125 -6.445312 L 3.835938 -6.429688 C 4.160156 -6.757812 4.515625 -7.011719 4.910156 -7.191406 C 5.300781 -7.371094 5.691406 -7.464844 6.074219 -7.464844 C 7.085938 -7.464844 7.882812 -7.105469 8.46875 -6.390625 C 9.054688 -5.675781 9.34375 -4.734375 9.34375 -3.566406 M 6.714844 -3.539062 C 6.714844 -3.902344 6.691406 -4.253906 6.636719 -4.589844 C 6.582031 -4.921875 6.488281 -5.222656 6.351562 -5.484375 C 6.21875 -5.75 6.046875 -5.960938 5.828125 -6.117188 C 5.613281 -6.273438 5.347656 -6.351562 5.035156 -6.351562 C 4.71875 -6.351562 4.464844 -6.296875 4.277344 -6.183594 C 4.085938 -6.074219 3.921875 -5.933594 3.78125 -5.757812 L 3.78125 -1.605469 C 3.808594 -1.507812 3.863281 -1.378906 3.949219 -1.226562 C 4.03125 -1.074219 4.113281 -0.949219 4.195312 -0.855469 C 4.316406 -0.726562 4.457031 -0.628906 4.613281 -0.5625 C 4.769531 -0.5 4.9375 -0.46875 5.125 -0.46875 C 5.605469 -0.46875 5.992188 -0.730469 6.28125 -1.25 C 6.570312 -1.769531 6.714844 -2.53125 6.714844 -3.539062 Z "/>
</g>
<g id="glyph-0-8">
<path d="M 8.796875 -0.152344 C 8.582031 -0.0625 8.328125 0.0234375 8.035156 0.101562 C 7.742188 0.179688 7.433594 0.21875 7.109375 0.21875 C 6.507812 0.21875 6.066406 0.128906 5.785156 -0.046875 C 5.503906 -0.226562 5.308594 -0.480469 5.207031 -0.8125 L 5.164062 -0.8125 C 4.996094 -0.648438 4.835938 -0.503906 4.683594 -0.386719 C 4.527344 -0.269531 4.363281 -0.171875 4.1875 -0.0859375 C 3.957031 0.0195312 3.738281 0.101562 3.523438 0.152344 C 3.3125 0.207031 3.015625 0.234375 2.632812 0.234375 C 2.066406 0.234375 1.582031 0.0664062 1.179688 -0.269531 C 0.777344 -0.601562 0.578125 -1.046875 0.578125 -1.597656 C 0.578125 -1.917969 0.621094 -2.1875 0.710938 -2.410156 C 0.796875 -2.632812 0.921875 -2.828125 1.085938 -3 C 1.230469 -3.15625 1.402344 -3.285156 1.59375 -3.390625 C 1.789062 -3.492188 2 -3.585938 2.230469 -3.675781 C 2.667969 -3.835938 3.199219 -4.003906 3.8125 -4.175781 C 4.429688 -4.351562 4.878906 -4.507812 5.164062 -4.644531 L 5.164062 -5.347656 C 5.164062 -5.46875 5.152344 -5.628906 5.132812 -5.828125 C 5.113281 -6.03125 5.074219 -6.199219 5.007812 -6.335938 C 4.941406 -6.492188 4.832031 -6.625 4.6875 -6.730469 C 4.539062 -6.839844 4.347656 -6.890625 4.109375 -6.890625 C 3.894531 -6.890625 3.714844 -6.863281 3.570312 -6.800781 C 3.425781 -6.738281 3.308594 -6.675781 3.222656 -6.613281 C 3.238281 -6.515625 3.277344 -6.367188 3.347656 -6.167969 C 3.414062 -5.964844 3.449219 -5.773438 3.449219 -5.589844 C 3.449219 -5.503906 3.425781 -5.402344 3.382812 -5.277344 C 3.339844 -5.152344 3.277344 -5.054688 3.191406 -4.980469 C 3.078125 -4.882812 2.953125 -4.808594 2.8125 -4.753906 C 2.675781 -4.699219 2.460938 -4.671875 2.171875 -4.671875 C 1.761719 -4.671875 1.449219 -4.773438 1.238281 -4.96875 C 1.027344 -5.167969 0.921875 -5.425781 0.921875 -5.742188 C 0.921875 -6.015625 1.03125 -6.261719 1.25 -6.476562 C 1.464844 -6.695312 1.730469 -6.875 2.042969 -7.015625 C 2.351562 -7.164062 2.703125 -7.277344 3.105469 -7.355469 C 3.503906 -7.4375 3.875 -7.476562 4.21875 -7.476562 C 4.691406 -7.476562 5.125 -7.449219 5.523438 -7.394531 C 5.917969 -7.335938 6.273438 -7.222656 6.59375 -7.046875 C 6.894531 -6.875 7.136719 -6.628906 7.3125 -6.300781 C 7.492188 -5.976562 7.582031 -5.554688 7.582031 -5.03125 C 7.582031 -4.480469 7.570312 -3.824219 7.546875 -3.070312 C 7.527344 -2.3125 7.515625 -1.8125 7.515625 -1.574219 C 7.515625 -1.355469 7.546875 -1.179688 7.613281 -1.054688 C 7.679688 -0.925781 7.78125 -0.832031 7.917969 -0.769531 C 8 -0.730469 8.132812 -0.707031 8.308594 -0.699219 C 8.488281 -0.691406 8.648438 -0.6875 8.796875 -0.6875 L 8.796875 -0.152344 M 5.164062 -3.96875 C 4.890625 -3.875 4.617188 -3.769531 4.347656 -3.648438 C 4.078125 -3.53125 3.859375 -3.40625 3.6875 -3.273438 C 3.503906 -3.136719 3.363281 -2.960938 3.261719 -2.746094 C 3.15625 -2.535156 3.105469 -2.285156 3.105469 -1.996094 C 3.105469 -1.613281 3.191406 -1.335938 3.367188 -1.164062 C 3.539062 -0.992188 3.753906 -0.90625 4.007812 -0.90625 C 4.277344 -0.90625 4.5 -0.964844 4.675781 -1.074219 C 4.847656 -1.183594 5 -1.320312 5.132812 -1.480469 Z "/>
</g>
<g id="glyph-0-9">
<path d="M 7.359375 -4.605469 L 6.882812 -4.605469 C 6.839844 -4.742188 6.78125 -4.902344 6.703125 -5.078125 C 6.625 -5.257812 6.507812 -5.46875 6.359375 -5.710938 C 6.230469 -5.921875 6.085938 -6.105469 5.929688 -6.265625 C 5.769531 -6.425781 5.605469 -6.511719 5.433594 -6.53125 C 5.296875 -6.546875 5.140625 -6.558594 4.960938 -6.570312 C 4.785156 -6.578125 4.625 -6.585938 4.488281 -6.585938 L 3.953125 -6.585938 L 3.953125 -1.339844 C 3.953125 -1.164062 3.984375 -1.015625 4.046875 -0.898438 C 4.109375 -0.777344 4.214844 -0.695312 4.367188 -0.652344 C 4.484375 -0.617188 4.59375 -0.59375 4.703125 -0.574219 C 4.808594 -0.558594 4.945312 -0.542969 5.105469 -0.535156 L 5.105469 0 L 0.453125 0 L 0.453125 -0.535156 C 0.574219 -0.542969 0.699219 -0.558594 0.824219 -0.574219 C 0.949219 -0.59375 1.054688 -0.617188 1.140625 -0.644531 C 1.296875 -0.699219 1.40625 -0.78125 1.464844 -0.894531 C 1.523438 -1.003906 1.554688 -1.152344 1.554688 -1.332031 L 1.554688 -5.933594 C 1.554688 -6.101562 1.523438 -6.25 1.460938 -6.367188 C 1.398438 -6.488281 1.292969 -6.570312 1.140625 -6.621094 C 1.015625 -6.660156 0.898438 -6.6875 0.789062 -6.699219 C 0.683594 -6.710938 0.570312 -6.722656 0.453125 -6.730469 L 0.453125 -7.265625 L 7.359375 -7.265625 Z "/>
</g>
<g id="glyph-0-10">
<path d="M 9.398438 0 L 4.78125 0 L 4.78125 -0.535156 C 4.90625 -0.542969 5.027344 -0.558594 5.15625 -0.574219 C 5.28125 -0.59375 5.390625 -0.617188 5.476562 -0.644531 C 5.632812 -0.699219 5.742188 -0.78125 5.804688 -0.894531 C 5.867188 -1.003906 5.894531 -1.152344 5.894531 -1.332031 L 5.894531 -6.5625 L 4.253906 -6.5625 C 4.230469 -5.339844 4.125 -4.296875 3.933594 -3.433594 C 3.742188 -2.566406 3.503906 -1.867188 3.214844 -1.335938 C 2.921875 -0.796875 2.605469 -0.402344 2.261719 -0.148438 C 1.921875 0.105469 1.578125 0.234375 1.230469 0.234375 C 0.96875 0.234375 0.746094 0.191406 0.566406 0.105469 C 0.390625 0.0195312 0.246094 -0.0859375 0.140625 -0.21875 C 0.0273438 -0.351562 -0.0507812 -0.5 -0.09375 -0.660156 C -0.140625 -0.820312 -0.160156 -0.964844 -0.160156 -1.089844 C -0.160156 -1.453125 -0.0585938 -1.742188 0.148438 -1.960938 C 0.359375 -2.175781 0.632812 -2.285156 0.972656 -2.285156 C 1.261719 -2.285156 1.511719 -2.207031 1.726562 -2.054688 C 1.941406 -1.902344 2.148438 -1.714844 2.34375 -1.492188 C 2.640625 -1.945312 2.890625 -2.550781 3.09375 -3.308594 C 3.296875 -4.070312 3.398438 -4.859375 3.398438 -5.683594 C 3.398438 -5.902344 3.363281 -6.074219 3.289062 -6.195312 C 3.214844 -6.316406 3.117188 -6.414062 2.996094 -6.488281 C 2.859375 -6.566406 2.703125 -6.625 2.527344 -6.660156 C 2.351562 -6.699219 2.195312 -6.722656 2.066406 -6.730469 L 2.066406 -7.265625 L 9.398438 -7.265625 L 9.398438 -6.730469 C 9.25 -6.722656 9.128906 -6.710938 9.03125 -6.695312 C 8.933594 -6.679688 8.824219 -6.65625 8.707031 -6.621094 C 8.566406 -6.578125 8.464844 -6.496094 8.398438 -6.382812 C 8.332031 -6.269531 8.296875 -6.117188 8.296875 -5.933594 L 8.296875 -1.332031 C 8.296875 -1.15625 8.328125 -1.007812 8.390625 -0.890625 C 8.449219 -0.769531 8.558594 -0.6875 8.707031 -0.644531 C 8.824219 -0.609375 8.929688 -0.585938 9.019531 -0.570312 C 9.109375 -0.554688 9.234375 -0.542969 9.398438 -0.535156 Z "/>
</g>
<g id="glyph-0-11">
<path d="M 10.195312 0 L 5.742188 0 L 5.742188 -0.535156 C 5.824219 -0.550781 5.925781 -0.566406 6.050781 -0.589844 C 6.171875 -0.613281 6.28125 -0.652344 6.378906 -0.710938 C 6.496094 -0.777344 6.578125 -0.863281 6.625 -0.964844 C 6.671875 -1.0625 6.695312 -1.207031 6.695312 -1.398438 L 6.695312 -3.5 L 3.953125 -3.5 L 3.953125 -1.398438 C 3.953125 -1.226562 3.980469 -1.085938 4.027344 -0.972656 C 4.078125 -0.863281 4.15625 -0.773438 4.269531 -0.710938 C 4.347656 -0.667969 4.445312 -0.628906 4.558594 -0.601562 C 4.675781 -0.570312 4.789062 -0.550781 4.90625 -0.535156 L 4.90625 0 L 0.453125 0 L 0.453125 -0.535156 C 0.574219 -0.542969 0.699219 -0.558594 0.824219 -0.574219 C 0.949219 -0.59375 1.054688 -0.617188 1.140625 -0.644531 C 1.296875 -0.699219 1.40625 -0.78125 1.464844 -0.894531 C 1.523438 -1.003906 1.554688 -1.152344 1.554688 -1.332031 L 1.554688 -5.933594 C 1.554688 -6.101562 1.523438 -6.25 1.460938 -6.367188 C 1.398438 -6.488281 1.292969 -6.570312 1.140625 -6.621094 C 1.015625 -6.660156 0.898438 -6.6875 0.789062 -6.699219 C 0.683594 -6.710938 0.570312 -6.722656 0.453125 -6.730469 L 0.453125 -7.265625 L 4.90625 -7.265625 L 4.90625 -6.730469 C 4.789062 -6.714844 4.679688 -6.699219 4.582031 -6.675781 C 4.480469 -6.652344 4.378906 -6.613281 4.269531 -6.554688 C 4.152344 -6.492188 4.070312 -6.402344 4.023438 -6.285156 C 3.976562 -6.167969 3.953125 -6.027344 3.953125 -5.867188 L 3.953125 -4.183594 L 6.695312 -4.183594 L 6.695312 -5.867188 C 6.695312 -6.027344 6.671875 -6.164062 6.628906 -6.28125 C 6.585938 -6.394531 6.5 -6.488281 6.378906 -6.554688 C 6.285156 -6.609375 6.179688 -6.648438 6.0625 -6.671875 C 5.941406 -6.695312 5.835938 -6.714844 5.742188 -6.730469 L 5.742188 -7.265625 L 10.195312 -7.265625 L 10.195312 -6.730469 C 10.046875 -6.722656 9.925781 -6.710938 9.828125 -6.695312 C 9.730469 -6.679688 9.625 -6.65625 9.507812 -6.621094 C 9.363281 -6.578125 9.261719 -6.496094 9.195312 -6.382812 C 9.128906 -6.269531 9.097656 -6.117188 9.097656 -5.933594 L 9.097656 -1.332031 C 9.097656 -1.15625 9.128906 -1.007812 9.1875 -0.890625 C 9.25 -0.769531 9.355469 -0.6875 9.507812 -0.644531 C 9.625 -0.609375 9.726562 -0.585938 9.816406 -0.570312 C 9.910156 -0.554688 10.035156 -0.542969 10.195312 -0.535156 Z "/>
</g>
<g id="glyph-0-12">
<path d="M 6.476562 0 L 0.453125 0 L 0.453125 -0.535156 C 0.574219 -0.542969 0.699219 -0.558594 0.824219 -0.574219 C 0.949219 -0.59375 1.054688 -0.617188 1.140625 -0.644531 C 1.296875 -0.699219 1.40625 -0.78125 1.464844 -0.894531 C 1.523438 -1.003906 1.554688 -1.152344 1.554688 -1.332031 L 1.554688 -5.933594 C 1.554688 -6.101562 1.523438 -6.25 1.460938 -6.367188 C 1.398438 -6.488281 1.292969 -6.570312 1.140625 -6.621094 C 1.015625 -6.660156 0.898438 -6.6875 0.789062 -6.699219 C 0.683594 -6.710938 0.570312 -6.722656 0.453125 -6.730469 L 0.453125 -7.265625 L 4.871094 -7.265625 L 4.871094 -6.730469 C 4.753906 -6.714844 4.648438 -6.699219 4.550781 -6.679688 C 4.457031 -6.660156 4.355469 -6.621094 4.25 -6.5625 C 4.144531 -6.507812 4.070312 -6.429688 4.023438 -6.320312 C 3.976562 -6.214844 3.953125 -6.0625 3.953125 -5.867188 L 3.953125 -1.320312 C 3.953125 -1.214844 3.957031 -1.128906 3.960938 -1.058594 C 3.96875 -0.988281 3.988281 -0.914062 4.027344 -0.84375 C 4.066406 -0.777344 4.132812 -0.726562 4.222656 -0.683594 C 4.3125 -0.644531 4.429688 -0.621094 4.570312 -0.617188 C 4.707031 -0.609375 4.84375 -0.605469 4.980469 -0.605469 C 5.117188 -0.601562 5.257812 -0.601562 5.398438 -0.601562 C 5.554688 -0.601562 5.691406 -0.601562 5.804688 -0.605469 C 5.917969 -0.605469 6.039062 -0.613281 6.160156 -0.621094 C 6.355469 -0.636719 6.464844 -0.6875 6.492188 -0.773438 C 6.519531 -0.859375 6.53125 -1 6.53125 -1.195312 L 6.53125 -5.867188 C 6.53125 -6.039062 6.511719 -6.179688 6.472656 -6.296875 C 6.429688 -6.410156 6.351562 -6.5 6.242188 -6.5625 C 6.148438 -6.617188 6.042969 -6.652344 5.929688 -6.675781 C 5.8125 -6.699219 5.710938 -6.714844 5.617188 -6.730469 L 5.617188 -7.265625 L 10.035156 -7.265625 L 10.035156 -6.730469 C 9.886719 -6.722656 9.765625 -6.710938 9.667969 -6.695312 C 9.570312 -6.679688 9.460938 -6.65625 9.34375 -6.621094 C 9.203125 -6.578125 9.101562 -6.496094 9.035156 -6.382812 C 8.96875 -6.269531 8.9375 -6.117188 8.9375 -5.933594 L 8.9375 -1.324219 C 8.9375 -1.066406 8.972656 -0.882812 9.046875 -0.773438 C 9.117188 -0.664062 9.316406 -0.609375 9.640625 -0.609375 L 10.230469 -0.609375 L 10.230469 2.351562 L 9.761719 2.351562 C 9.714844 2.210938 9.628906 2.011719 9.511719 1.761719 C 9.390625 1.511719 9.242188 1.261719 9.066406 1.019531 C 8.875 0.757812 8.667969 0.535156 8.4375 0.351562 C 8.207031 0.164062 7.941406 0.0585938 7.640625 0.03125 C 7.464844 0.015625 7.257812 0.0078125 7.019531 0.00390625 C 6.785156 0 6.601562 0 6.476562 0 Z "/>
</g>
</g>
</defs>
<g fill="rgb(76.862745%, 59.215686%, 35.294118%)" fill-opacity="1">
<use xlink:href="#glyph-0-0" x="30" y="33.754883"/>
<use xlink:href="#glyph-0-1" x="41" y="33.754883"/>
<use xlink:href="#glyph-0-2" x="52" y="33.754883"/>
<use xlink:href="#glyph-0-3" x="61" y="33.754883"/>
<use xlink:href="#glyph-0-4" x="71" y="33.754883"/>
<use xlink:href="#glyph-0-1" x="80" y="33.754883"/>
<use xlink:href="#glyph-0-5" x="91" y="33.754883"/>
<use xlink:href="#glyph-0-6" x="95" y="33.754883"/>
<use xlink:href="#glyph-0-7" x="103" y="33.754883"/>
<use xlink:href="#glyph-0-1" x="113" y="33.754883"/>
<use xlink:href="#glyph-0-8" x="124" y="33.754883"/>
<use xlink:href="#glyph-0-9" x="133" y="33.754883"/>
<use xlink:href="#glyph-0-3" x="140" y="33.754883"/>
<use xlink:href="#glyph-0-10" x="150" y="33.754883"/>
<use xlink:href="#glyph-0-11" x="160" y="33.754883"/>
<use xlink:href="#glyph-0-1" x="171" y="33.754883"/>
<use xlink:href="#glyph-0-12" x="182" y="33.754883"/>
<use xlink:href="#glyph-0-1" x="193" y="33.754883"/>
</g>
</svg>
