<?xml version="1.0" encoding="UTF-8"?>
<svg xmlns="http://www.w3.org/2000/svg" xmlns:xlink="http://www.w3.org/1999/xlink" width="854" height="480" viewBox="0 0 854 480">
<defs>
<g>
<g id="glyph-0-0">
<path d="M 5.644531 -4.421875 C 5.644531 -4.121094 5.59375 -3.835938 5.5 -3.5625 C 5.402344 -3.292969 5.265625 -3.0625 5.085938 -2.882812 C 4.976562 -2.769531 4.855469 -2.664062 4.726562 -2.570312 C 4.59375 -2.472656 4.449219 -2.394531 4.289062 -2.328125 C 4.128906 -2.261719 3.957031 -2.207031 3.769531 -2.171875 C 3.582031 -2.132812 3.375 -2.113281 3.140625 -2.113281 L 2.292969 -2.113281 L 2.292969 0 L 0.667969 0 L 0.667969 -6.464844 L 3.175781 -6.464844 C 3.550781 -6.464844 3.871094 -6.429688 4.144531 -6.359375 C 4.414062 -6.292969 4.660156 -6.183594 4.878906 -6.039062 C 5.121094 -5.875 5.308594 -5.660156 5.441406 -5.390625 C 5.574219 -5.117188 5.644531 -4.796875 5.644531 -4.421875 M 3.976562 -4.382812 C 3.976562 -4.566406 3.933594 -4.722656 3.84375 -4.855469 C 3.757812 -4.988281 3.65625 -5.078125 3.53125 -5.125 C 3.378906 -5.191406 3.234375 -5.230469 3.09375 -5.242188 C 2.953125 -5.25 2.761719 -5.257812 2.523438 -5.257812 L 2.292969 -5.257812 L 2.292969 -3.320312 L 2.40625 -3.320312 C 2.558594 -3.320312 2.703125 -3.320312 2.839844 -3.324219 C 2.976562 -3.328125 3.09375 -3.335938 3.195312 -3.355469 C 3.28125 -3.371094 3.375 -3.398438 3.46875 -3.441406 C 3.566406 -3.480469 3.640625 -3.527344 3.695312 -3.582031 C 3.804688 -3.6875 3.878906 -3.800781 3.917969 -3.914062 C 3.957031 -4.03125 3.976562 -4.1875 3.976562 -4.382812 Z "/>
</g>
<g id="glyph-0-1">
<path d="M 3.269531 -1.273438 L 3.269531 -2.289062 C 3.011719 -2.261719 2.800781 -2.238281 2.644531 -2.21875 C 2.484375 -2.203125 2.328125 -2.164062 2.175781 -2.109375 C 2.042969 -2.0625 1.9375 -1.992188 1.863281 -1.898438 C 1.789062 -1.804688 1.753906 -1.679688 1.753906 -1.523438 C 1.753906 -1.292969 1.816406 -1.136719 1.9375 -1.050781 C 2.0625 -0.96875 2.242188 -0.925781 2.484375 -0.925781 C 2.617188 -0.925781 2.75 -0.953125 2.890625 -1.015625 C 3.03125 -1.078125 3.15625 -1.160156 3.269531 -1.273438 M 3.269531 -0.515625 C 3.164062 -0.429688 3.070312 -0.351562 2.988281 -0.28125 C 2.90625 -0.210938 2.796875 -0.144531 2.65625 -0.0742188 C 2.519531 -0.0078125 2.386719 0.0429688 2.257812 0.078125 C 2.128906 0.113281 1.949219 0.128906 1.71875 0.128906 C 1.289062 0.128906 0.929688 -0.015625 0.644531 -0.304688 C 0.359375 -0.59375 0.21875 -0.957031 0.21875 -1.398438 C 0.21875 -1.757812 0.289062 -2.050781 0.433594 -2.273438 C 0.578125 -2.496094 0.785156 -2.671875 1.058594 -2.804688 C 1.332031 -2.9375 1.664062 -3.03125 2.042969 -3.082031 C 2.425781 -3.132812 2.835938 -3.175781 3.277344 -3.203125 L 3.277344 -3.230469 C 3.277344 -3.5 3.179688 -3.683594 2.980469 -3.785156 C 2.78125 -3.890625 2.484375 -3.941406 2.085938 -3.941406 C 1.910156 -3.941406 1.699219 -3.910156 1.457031 -3.84375 C 1.21875 -3.777344 0.984375 -3.695312 0.753906 -3.59375 L 0.625 -3.59375 L 0.625 -4.769531 C 0.777344 -4.8125 1.019531 -4.863281 1.355469 -4.925781 C 1.691406 -4.984375 2.027344 -5.011719 2.371094 -5.011719 C 3.210938 -5.011719 3.820312 -4.875 4.203125 -4.59375 C 4.585938 -4.316406 4.777344 -3.890625 4.777344 -3.316406 L 4.777344 0 L 3.269531 0 Z "/>
</g>
<g id="glyph-0-2">
<path d="M 4.417969 -1.378906 C 4.417969 -1.097656 4.355469 -0.859375 4.226562 -0.664062 C 4.097656 -0.46875 3.921875 -0.308594 3.707031 -0.191406 C 3.5 -0.078125 3.257812 0.00390625 2.984375 0.0546875 C 2.710938 0.109375 2.417969 0.132812 2.105469 0.132812 C 1.707031 0.132812 1.34375 0.0976562 1.023438 0.0234375 C 0.703125 -0.0546875 0.402344 -0.140625 0.125 -0.242188 L 0.125 -1.414062 L 0.285156 -1.414062 C 0.503906 -1.289062 0.746094 -1.179688 1.007812 -1.089844 C 1.273438 -1 1.542969 -0.953125 1.820312 -0.953125 C 1.921875 -0.953125 2.042969 -0.960938 2.1875 -0.976562 C 2.332031 -0.992188 2.445312 -1.015625 2.527344 -1.050781 C 2.652344 -1.097656 2.738281 -1.160156 2.789062 -1.230469 C 2.84375 -1.300781 2.867188 -1.390625 2.867188 -1.5 C 2.867188 -1.625 2.839844 -1.71875 2.78125 -1.789062 C 2.722656 -1.863281 2.644531 -1.914062 2.542969 -1.949219 C 2.441406 -1.984375 2.324219 -2.003906 2.191406 -2.011719 C 2.058594 -2.019531 1.914062 -2.023438 1.757812 -2.023438 L 1.1875 -2.023438 L 1.1875 -2.996094 L 1.625 -2.996094 C 1.734375 -2.996094 1.867188 -2.996094 2.023438 -3 C 2.179688 -3.003906 2.304688 -3.019531 2.394531 -3.046875 C 2.515625 -3.078125 2.605469 -3.125 2.671875 -3.183594 C 2.742188 -3.242188 2.773438 -3.335938 2.773438 -3.46875 C 2.773438 -3.5625 2.746094 -3.636719 2.6875 -3.695312 C 2.632812 -3.753906 2.558594 -3.800781 2.464844 -3.835938 C 2.386719 -3.867188 2.296875 -3.886719 2.191406 -3.902344 C 2.085938 -3.917969 1.976562 -3.921875 1.863281 -3.921875 C 1.652344 -3.921875 1.425781 -3.890625 1.183594 -3.820312 C 0.945312 -3.75 0.726562 -3.664062 0.53125 -3.558594 L 0.367188 -3.558594 L 0.367188 -4.714844 C 0.535156 -4.765625 0.789062 -4.828125 1.136719 -4.902344 C 1.480469 -4.976562 1.816406 -5.011719 2.144531 -5.011719 C 2.4375 -5.011719 2.707031 -4.992188 2.953125 -4.949219 C 3.199219 -4.90625 3.429688 -4.828125 3.644531 -4.71875 C 3.847656 -4.613281 4.011719 -4.476562 4.136719 -4.300781 C 4.261719 -4.128906 4.324219 -3.914062 4.324219 -3.664062 C 4.324219 -3.40625 4.242188 -3.175781 4.074219 -2.96875 C 3.910156 -2.761719 3.710938 -2.625 3.472656 -2.550781 L 3.472656 -2.511719 C 3.773438 -2.429688 4.007812 -2.289062 4.171875 -2.09375 C 4.335938 -1.898438 4.417969 -1.660156 4.417969 -1.378906 Z "/>
</g>
<g id="glyph-0-3">
<path d="M 5.164062 -1.472656 C 5.164062 -1.238281 5.117188 -1.027344 5.027344 -0.847656 C 4.933594 -0.664062 4.808594 -0.511719 4.652344 -0.390625 C 4.457031 -0.238281 4.25 -0.132812 4.03125 -0.0820312 C 3.8125 -0.0273438 3.550781 0 3.25 0 L 0.582031 0 L 0.582031 -4.875 L 3.125 -4.875 C 3.480469 -4.875 3.742188 -4.863281 3.910156 -4.839844 C 4.078125 -4.816406 4.242188 -4.761719 4.40625 -4.671875 C 4.578125 -4.578125 4.703125 -4.453125 4.789062 -4.300781 C 4.871094 -4.148438 4.914062 -3.964844 4.914062 -3.753906 C 4.914062 -3.511719 4.847656 -3.300781 4.71875 -3.121094 C 4.589844 -2.941406 4.425781 -2.804688 4.226562 -2.707031 L 4.226562 -2.660156 C 4.496094 -2.59375 4.71875 -2.460938 4.898438 -2.257812 C 5.078125 -2.058594 5.164062 -1.796875 5.164062 -1.472656 M 3.398438 -3.402344 C 3.398438 -3.589844 3.34375 -3.722656 3.234375 -3.792969 C 3.128906 -3.867188 2.953125 -3.902344 2.71875 -3.902344 L 2.085938 -3.902344 L 2.085938 -2.929688 L 2.742188 -2.929688 C 2.953125 -2.929688 3.117188 -2.972656 3.230469 -3.054688 C 3.34375 -3.140625 3.398438 -3.253906 3.398438 -3.402344 M 3.617188 -1.519531 C 3.617188 -1.730469 3.554688 -1.878906 3.4375 -1.964844 C 3.320312 -2.050781 3.140625 -2.09375 2.90625 -2.09375 L 2.085938 -2.09375 L 2.085938 -0.976562 L 2.933594 -0.976562 C 3.148438 -0.976562 3.316406 -1.023438 3.433594 -1.121094 C 3.554688 -1.21875 3.617188 -1.351562 3.617188 -1.519531 Z "/>
</g>
<g id="glyph-0-4">
<path d="M 5.214844 0 L 3.71875 0 L 3.71875 -2.960938 L 1.851562 0 L 0.582031 0 L 0.582031 -4.875 L 2.074219 -4.875 L 2.074219 -2.226562 L 3.785156 -4.875 L 5.214844 -4.875 Z "/>
</g>
<g id="glyph-0-5">
<path d="M 3.078125 0.128906 C 2.15625 0.128906 1.453125 -0.0898438 0.960938 -0.53125 C 0.472656 -0.96875 0.226562 -1.597656 0.226562 -2.410156 C 0.226562 -3.203125 0.453125 -3.839844 0.910156 -4.3125 C 1.367188 -4.789062 2.007812 -5.027344 2.828125 -5.027344 C 3.578125 -5.027344 4.136719 -4.824219 4.515625 -4.421875 C 4.890625 -4.019531 5.078125 -3.445312 5.078125 -2.695312 L 5.078125 -2.148438 L 1.75 -2.148438 C 1.765625 -1.921875 1.8125 -1.734375 1.890625 -1.582031 C 1.972656 -1.429688 2.082031 -1.308594 2.214844 -1.21875 C 2.34375 -1.128906 2.496094 -1.066406 2.667969 -1.027344 C 2.84375 -0.988281 3.03125 -0.96875 3.238281 -0.96875 C 3.414062 -0.96875 3.589844 -0.988281 3.757812 -1.027344 C 3.929688 -1.066406 4.085938 -1.117188 4.226562 -1.179688 C 4.351562 -1.234375 4.46875 -1.292969 4.574219 -1.359375 C 4.679688 -1.421875 4.765625 -1.480469 4.832031 -1.527344 L 4.992188 -1.527344 L 4.992188 -0.273438 C 4.867188 -0.222656 4.753906 -0.179688 4.652344 -0.136719 C 4.546875 -0.09375 4.40625 -0.0507812 4.226562 -0.0078125 C 4.0625 0.0351562 3.894531 0.0703125 3.71875 0.09375 C 3.542969 0.117188 3.328125 0.128906 3.078125 0.128906 M 3.582031 -3.0625 C 3.570312 -3.386719 3.496094 -3.628906 3.355469 -3.796875 C 3.21875 -3.964844 3.003906 -4.050781 2.710938 -4.050781 C 2.417969 -4.050781 2.1875 -3.960938 2.019531 -3.785156 C 1.855469 -3.609375 1.761719 -3.367188 1.746094 -3.0625 Z "/>
</g>
<g id="glyph-0-6">
<path d="M 5.191406 0 L 3.671875 0 L 3.671875 -2.085938 L 2.101562 -2.085938 L 2.101562 0 L 0.582031 0 L 0.582031 -4.875 L 2.101562 -4.875 L 2.101562 -3.1875 L 3.671875 -3.1875 L 3.671875 -4.875 L 5.191406 -4.875 Z "/>
</g>
<g id="glyph-0-7">
</g>
<g id="glyph-0-8">
<path d="M 7.65625 -2.546875 C 7.65625 -1.730469 7.472656 -1.09375 7.097656 -0.628906 C 6.726562 -0.167969 6.230469 0.0664062 5.613281 0.0664062 C 5.390625 0.0664062 5.210938 0.0390625 5.0625 -0.015625 C 4.917969 -0.0742188 4.792969 -0.125 4.695312 -0.179688 L 4.695312 1.789062 L 3.195312 1.789062 L 3.195312 -0.183594 C 3.0625 -0.105469 2.925781 -0.0429688 2.773438 0 C 2.625 0.0429688 2.433594 0.0664062 2.199219 0.0664062 C 1.585938 0.0664062 1.101562 -0.152344 0.753906 -0.589844 C 0.40625 -1.023438 0.234375 -1.628906 0.234375 -2.40625 C 0.234375 -3.175781 0.421875 -3.796875 0.800781 -4.261719 C 1.179688 -4.726562 1.664062 -4.960938 2.257812 -4.960938 C 2.480469 -4.960938 2.664062 -4.933594 2.816406 -4.882812 C 2.964844 -4.828125 3.089844 -4.769531 3.195312 -4.707031 L 3.195312 -6.753906 L 4.695312 -6.753906 L 4.695312 -4.710938 C 4.8125 -4.769531 4.960938 -4.828125 5.144531 -4.882812 C 5.324219 -4.933594 5.523438 -4.960938 5.738281 -4.960938 C 6.355469 -4.960938 6.832031 -4.75 7.160156 -4.332031 C 7.492188 -3.914062 7.65625 -3.316406 7.65625 -2.546875 M 6.128906 -2.464844 C 6.128906 -2.945312 6.042969 -3.296875 5.871094 -3.523438 C 5.699219 -3.746094 5.429688 -3.859375 5.0625 -3.859375 C 4.992188 -3.859375 4.929688 -3.855469 4.871094 -3.851562 C 4.816406 -3.84375 4.757812 -3.835938 4.695312 -3.820312 L 4.695312 -1.066406 C 4.757812 -1.054688 4.816406 -1.046875 4.871094 -1.042969 C 4.929688 -1.035156 4.988281 -1.03125 5.050781 -1.03125 C 5.417969 -1.03125 5.6875 -1.152344 5.863281 -1.390625 C 6.039062 -1.625 6.128906 -1.984375 6.128906 -2.464844 M 3.195312 -1.066406 L 3.195312 -3.824219 C 3.140625 -3.835938 3.082031 -3.84375 3.011719 -3.851562 C 2.941406 -3.855469 2.882812 -3.859375 2.828125 -3.859375 C 2.464844 -3.859375 2.195312 -3.738281 2.023438 -3.503906 C 1.847656 -3.265625 1.761719 -2.90625 1.761719 -2.425781 C 1.761719 -1.945312 1.851562 -1.59375 2.023438 -1.371094 C 2.199219 -1.144531 2.472656 -1.03125 2.839844 -1.03125 C 2.890625 -1.03125 2.953125 -1.035156 3.023438 -1.042969 C 3.09375 -1.050781 3.152344 -1.058594 3.195312 -1.066406 Z "/>
</g>
<g id="glyph-0-9">
<path d="M 5.261719 -2.433594 C 5.261719 -1.632812 5.042969 -1 4.601562 -0.539062 C 4.164062 -0.078125 3.542969 0.152344 2.742188 0.152344 C 1.949219 0.152344 1.328125 -0.078125 0.886719 -0.539062 C 0.445312 -1 0.226562 -1.632812 0.226562 -2.433594 C 0.226562 -3.246094 0.445312 -3.878906 0.886719 -4.339844 C 1.328125 -4.796875 1.949219 -5.027344 2.742188 -5.027344 C 3.542969 -5.027344 4.160156 -4.796875 4.601562 -4.332031 C 5.039062 -3.871094 5.261719 -3.238281 5.261719 -2.433594 M 3.703125 -2.425781 C 3.703125 -2.714844 3.679688 -2.957031 3.628906 -3.148438 C 3.582031 -3.339844 3.515625 -3.496094 3.433594 -3.609375 C 3.34375 -3.734375 3.242188 -3.816406 3.128906 -3.863281 C 3.015625 -3.914062 2.886719 -3.9375 2.742188 -3.9375 C 2.605469 -3.9375 2.484375 -3.914062 2.375 -3.875 C 2.265625 -3.832031 2.164062 -3.75 2.070312 -3.632812 C 1.984375 -3.519531 1.914062 -3.367188 1.863281 -3.167969 C 1.808594 -2.972656 1.785156 -2.722656 1.785156 -2.425781 C 1.785156 -2.128906 1.808594 -1.886719 1.859375 -1.703125 C 1.90625 -1.519531 1.96875 -1.371094 2.046875 -1.261719 C 2.128906 -1.148438 2.230469 -1.066406 2.351562 -1.015625 C 2.472656 -0.964844 2.609375 -0.9375 2.757812 -0.9375 C 2.878906 -0.9375 3 -0.964844 3.128906 -1.015625 C 3.253906 -1.066406 3.355469 -1.144531 3.429688 -1.25 C 3.519531 -1.375 3.585938 -1.523438 3.632812 -1.699219 C 3.679688 -1.875 3.703125 -2.117188 3.703125 -2.425781 Z "/>
</g>
<g id="glyph-0-10">
<path d="M 5.359375 -2.503906 C 5.359375 -1.726562 5.164062 -1.097656 4.769531 -0.621094 C 4.371094 -0.144531 3.886719 0.09375 3.308594 0.09375 C 3.0625 0.09375 2.851562 0.0664062 2.671875 0.0117188 C 2.496094 -0.0429688 2.304688 -0.128906 2.101562 -0.242188 L 2.101562 1.789062 L 0.582031 1.789062 L 0.582031 -4.875 L 2.101562 -4.875 L 2.101562 -4.367188 C 2.324219 -4.558594 2.550781 -4.710938 2.78125 -4.832031 C 3.015625 -4.949219 3.28125 -5.007812 3.585938 -5.007812 C 4.148438 -5.007812 4.585938 -4.785156 4.894531 -4.335938 C 5.207031 -3.886719 5.359375 -3.277344 5.359375 -2.503906 M 3.804688 -2.472656 C 3.804688 -2.949219 3.734375 -3.292969 3.585938 -3.507812 C 3.441406 -3.722656 3.214844 -3.828125 2.902344 -3.828125 C 2.769531 -3.828125 2.632812 -3.804688 2.496094 -3.761719 C 2.363281 -3.71875 2.230469 -3.65625 2.101562 -3.566406 L 2.101562 -1.117188 C 2.183594 -1.082031 2.269531 -1.054688 2.367188 -1.042969 C 2.464844 -1.027344 2.578125 -1.019531 2.710938 -1.019531 C 3.082031 -1.019531 3.359375 -1.140625 3.539062 -1.382812 C 3.71875 -1.625 3.804688 -1.988281 3.804688 -2.472656 Z "/>
</g>
<g id="glyph-0-11">
<path d="M 6.144531 0 L 4.652344 0 L 4.652344 -3.058594 L 3.664062 -1.027344 L 3.019531 -1.027344 L 2.03125 -3.058594 L 2.03125 0 L 0.582031 0 L 0.582031 -4.875 L 2.234375 -4.875 L 3.363281 -2.617188 L 4.492188 -4.875 L 6.144531 -4.875 Z "/>
</g>
<g id="glyph-0-12">
<path d="M 2.382812 -3.167969 L 0.847656 -3.167969 L 0.847656 -4.875 L 2.382812 -4.875 L 2.382812 -3.167969 M 2.382812 0 L 0.847656 0 L 0.847656 -1.707031 L 2.382812 -1.707031 Z "/>
</g>
</g>
</defs>
<g fill="rgb(76.862745%, 59.215686%, 35.294118%)" fill-opacity="1">
<use xlink:href="#glyph-0-0" x="30" y="28.892578"/>
<use xlink:href="#glyph-0-1" x="36" y="28.892578"/>
<use xlink:href="#glyph-0-2" x="41" y="28.892578"/>
<use xlink:href="#glyph-0-3" x="46" y="28.892578"/>
<use xlink:href="#glyph-0-4" x="51" y="28.892578"/>
<use xlink:href="#glyph-0-5" x="57" y="28.892578"/>
<use xlink:href="#glyph-0-6" x="62" y="28.892578"/>
<use xlink:href="#glyph-0-1" x="68" y="28.892578"/>
<use xlink:href="#glyph-0-7" x="73" y="28.892578"/>
<use xlink:href="#glyph-0-8" x="76" y="28.892578"/>
<use xlink:href="#glyph-0-9" x="84" y="28.892578"/>
<use xlink:href="#glyph-0-10" x="89" y="28.892578"/>
<use xlink:href="#glyph-0-11" x="95" y="28.892578"/>
<use xlink:href="#glyph-0-1" x="102" y="28.892578"/>
<use xlink:href="#glyph-0-12" x="107" y="28.892578"/>
</g>
</svg>
